<svg xmlns="http://www.w3.org/2000/svg" class="MuiSvgIcon-root MuiSvgIcon-fontSizeMedium css-zmgc6c" focusable="false" aria-hidden="true" viewBox="0 0 147 88" width="147" height="88" fill="none" xmlns:xlink="http://www.w3.org/2000/svg"><g clip-path="url(#clip0_783_569)" fill-opacity="0.87" fill="#000000"><path d="M32.7236 19.818C32.7236 19.818 36.3793 21.4624 37.1346 24.0892C39.4132 23.8833 40.3972 19.9144 40.3972 19.9144C40.3972 19.9144 38.0722 18.6167 38.64 15.4035C38.0825 13.2614 36.3793 13.2745 36.3793 13.2745L32.7236 19.8206V19.818Z" fill="#E5AA92" fill-opacity="0.87"></path><path d="M32.7236 19.818C32.7236 19.818 36.3793 21.4624 37.1346 24.0892C39.4132 23.8833 40.3972 19.9144 40.3972 19.9144C40.3972 19.9144 38.0722 18.6167 38.64 15.4035C38.0825 13.2614 36.3793 13.2745 36.3793 13.2745L32.7236 19.8206V19.818Z" fill="#E5AA92" fill-opacity="0.87"></path><path d="M35.0845 21.3086C34.5014 20.8656 33.7512 20.4252 33.4121 20.2037C33.6074 19.4584 34.5014 17.9052 34.7788 17.5795C35.1333 17.1599 36.3459 15.2654 36.3459 15.2654L38.4268 16.0758L38.5115 16.3859C38.3266 18.76 41.4171 19.9561 41.4171 19.9561C41.4171 19.9561 40.4922 20.334 40.3972 20.5893C40.0606 20.4877 38.2161 19.5 37.4557 19.5261C36.4512 19.56 35.5058 20.8108 35.0845 21.306V21.3086Z" fill="#DF947E" fill-opacity="0.87"></path><path d="M31.4366 11.6848C31.4366 11.6848 30.2497 13.1181 30.4578 13.9364C30.6659 14.7546 30.6504 15.3227 30.4578 15.6745C30.2625 16.0263 29.89 16.9254 29.7308 17.1625C29.5715 17.3997 30.0365 17.4309 30.5914 17.4544C30.5914 17.4544 30.689 17.8453 30.7738 18.958C30.856 20.0708 30.7738 20.1698 31.1951 20.5164C31.619 20.863 35.457 20.863 35.457 16.9931C35.8526 16.0915 38.6374 15.4009 38.6374 15.4009C38.6374 15.4009 39.4363 12.2295 37.7999 11.2835C36.1635 10.335 32.7467 10.3532 31.4366 11.6848Z" fill="#E5AA92" fill-opacity="0.87"></path><path d="M34.1445 17.6655C34.1445 17.6655 31.7579 17.2589 30.5916 17.4544C30.6122 18.6427 30.5479 19.7502 30.3553 20.2063C30.1626 20.6623 31.0592 20.7118 32.1073 20.6571C33.1554 20.605 34.8304 20.2558 35.2594 19.4245C35.6885 18.5932 35.6037 18.2961 35.4367 17.4909C35.2697 16.6882 34.851 16.0706 34.8047 15.2628C34.5632 16.67 34.1471 17.6629 34.1471 17.6629L34.1445 17.6655Z" fill="#652F1D" fill-opacity="0.87"></path><path d="M31.2438 10.546C32.3202 9.32123 36.2277 8.38309 38.7324 9.87109C40.5564 10.9552 40.618 12.7324 40.1505 14.1422C40.1505 14.1422 40.1505 14.1422 40.1505 14.1448C40.0195 14.7833 39.2 15.7944 38.9251 16.5501C38.6528 17.3059 38.9688 18.072 38.9688 18.072C38.9688 18.072 37.3375 17.9235 36.9033 17.3814C36.4717 16.8394 36.5102 15.8752 36.5488 15.5104C36.5873 15.1455 35.6214 14.4054 35.3696 14.7312C35.1179 15.0569 34.7993 15.6511 34.8327 16.0837C34.8378 16.1618 34.8044 16.6309 34.8661 16.8029L34.1853 16.8212C34.1853 16.8212 34.1211 16.6856 34.1211 16.683C34.1314 16.1202 34.2033 14.8484 33.6664 14.5696C33.132 14.2908 33.019 13.3657 33.019 13.3657C32.9291 13.1728 32.7082 12.8757 32.1995 12.9409C31.4545 13.0347 30.6067 13.0086 30.6067 13.0086C30.6067 13.0086 30.1597 11.7682 31.2361 10.546H31.2438Z" fill="#652F1D" fill-opacity="0.87"></path><path d="M34.1878 12.6803C34.1878 12.6803 34.2264 16.2687 33.9669 17.8505C33.7074 19.4297 32.3484 20.6597 32.107 20.6571C32.5334 20.9489 32.9727 20.8108 33.4531 20.4825C34.0748 20.0603 34.902 18.33 34.9251 16.8237C34.9482 15.3175 35.0305 12.9539 35.0305 12.9539L34.1853 12.6829L34.1878 12.6803Z" fill="#472218" fill-opacity="0.87"></path><path d="M31.0127 16.5814C31.005 16.6101 31.2542 16.829 31.3133 17.0453C31.375 17.2616 31.0102 17.3893 30.8201 17.4075C31.0795 17.1912 31.1618 17.1235 31.154 17.0322C31.1463 16.9384 31.0127 16.5814 31.0127 16.5814Z" fill="#DF947E" fill-opacity="0.87"></path><path d="M34.925 15.4712C34.925 15.4712 35.1126 13.6653 36.2378 14.1474C37.3604 14.6269 36.2506 17.1729 35.7677 17.2772C35.2821 17.3814 35.0612 16.8837 35.0047 16.5084C34.9482 16.1332 34.9276 15.4712 34.9276 15.4712H34.925Z" fill="#E5AA92" fill-opacity="0.87"></path><path d="M35.2849 16.1514C35.2849 16.1514 35.195 15.3983 35.3491 14.9944C35.5033 14.5905 36.0222 14.2882 36.2303 14.4341C36.4384 14.5774 36.4718 15.3853 36.3356 15.8309C36.1969 16.2765 35.7473 16.7586 35.7473 16.7586C36.1018 16.029 36.2714 15.8491 36.2637 15.5521C36.2534 15.255 36.1866 14.7807 36.1738 14.7338C36.1609 14.6869 35.5547 14.9761 35.4802 15.4791C35.6908 15.2107 36.1147 15.1664 36.1121 15.3696C36.107 15.5729 36.0582 15.797 36.0582 15.797C36.0351 15.4973 35.9554 15.4192 35.8372 15.4504C35.7191 15.4817 35.5213 15.7527 35.5418 15.7553C35.8552 15.711 35.8912 15.943 35.7987 16.1957C35.7062 16.4511 35.678 16.6804 35.5213 16.6127C35.3646 16.5449 35.3055 16.3338 35.29 16.1488L35.2849 16.1514Z" fill="#DF947E" fill-opacity="0.87"></path><path d="M32.0223 14.3611C32.0223 14.3611 31.2465 14.0484 30.9202 14.0614C30.5914 14.0745 30.5631 14.4732 30.7533 14.4601C30.9434 14.4471 31.8117 14.5957 32.0429 14.6113C32.2741 14.6269 32.3178 14.4732 32.0249 14.3637L32.0223 14.3611Z" fill="#652F1D" fill-opacity="0.87"></path><path d="M31.2105 15.1429C31.2105 15.1429 31.2208 15.4712 31.2413 15.5546C31.6498 15.5234 32.1071 15.3331 32.1071 15.3331L31.2105 15.1455V15.1429Z" fill="#FFFFFF" fill-opacity="0.87"></path><path d="M31.1436 15.3201C31.1539 15.453 31.1796 15.5598 31.2695 15.552C31.3594 15.5442 31.4236 15.4322 31.4133 15.2992C31.4031 15.1663 31.3234 15.0647 31.2335 15.0699C31.1436 15.0777 31.1333 15.1872 31.1436 15.3201Z" fill="#472218" fill-opacity="0.87"></path><path d="M32.1636 15.3279C32.1636 15.3279 31.4366 15.3853 31.0024 15.0673C30.8714 14.9605 30.8483 14.911 30.8483 14.911L32.1636 15.3279Z" fill="#652F1D" fill-opacity="0.87"></path><path d="M35.2593 14.4523C35.2593 14.4523 33.4584 14.0276 30.4399 14.3689C30.4091 15.0699 30.4913 15.7371 31.0282 16.0472C31.5651 16.3573 32.4103 16.2635 32.7211 15.6928C33.032 15.1221 33.1938 14.9214 33.1938 14.9214L35.0332 14.9527L35.2567 14.4523H35.2593Z" fill="#1E1311" fill-opacity="0.87"></path><path d="M31.76 16.0446C31.6264 16.1254 31.5133 16.1697 31.4157 16.1879C31.2796 16.1592 31.146 16.1149 31.0304 16.0472C30.9661 16.0107 30.9096 15.9664 30.8582 15.9221C30.8171 15.8778 30.776 15.8309 30.7324 15.784C30.7041 15.7475 30.681 15.711 30.6604 15.6719C30.6527 15.6563 30.6424 15.6407 30.6347 15.625C30.6142 15.5859 30.5962 15.5468 30.5782 15.5052C30.5705 15.4869 30.5654 15.4713 30.5602 15.453C30.514 15.3227 30.4832 15.182 30.4626 15.0335C30.4575 14.9996 30.4549 14.9657 30.4523 14.9318C30.4498 14.8954 30.4472 14.8615 30.4446 14.825C30.4446 14.7807 30.4395 14.7338 30.4395 14.6895C30.4395 14.6608 30.4395 14.6322 30.4395 14.6035C30.4395 14.5279 30.4395 14.4497 30.4446 14.3742C31.0817 14.3012 31.6623 14.2647 32.1838 14.2491C32.2044 14.64 32.3328 15.7032 31.7625 16.0472L31.76 16.0446Z" fill="#594947" fill-opacity="0.87"></path><path d="M41.0266 13.6523C40.9162 14.0875 40.4743 14.3455 40.0453 14.2282C38.6015 13.8373 35.3158 12.993 33.2838 12.8054C30.6223 12.5578 28.8626 12.7272 28.2409 12.1461C27.6166 11.565 30.1907 9.1779 33.2632 8.34139C36.3357 7.50488 38.8893 8.26061 40.4075 10.1186C41.394 11.3252 41.2502 12.7793 41.0292 13.6523H41.0266Z" fill="#EBC13A" fill-opacity="0.87"></path><path d="M39.4183 10.9525C38.3291 9.11013 35.9322 8.61239 32.8597 9.4489C30.8533 9.99615 29.0576 11.2053 28.2304 12.1382C27.6344 11.5441 30.1983 9.17528 33.2579 8.33877C36.3304 7.50226 38.884 8.25798 40.4022 10.116C41.3887 11.3226 41.2448 12.7767 41.0239 13.6497C40.916 14.0771 40.487 14.3324 40.0657 14.2308C40.1248 13.251 39.9989 11.9324 39.4183 10.9499V10.9525Z" fill="#FFD04D" fill-opacity="0.87"></path><path d="M33.0242 10.7311C33.0242 10.7311 34.861 10.0587 36.7261 10.46C38.5886 10.864 39.3002 11.935 39.1615 12.6803C39.0227 13.4256 37.1705 12.7064 35.6471 12.4249C34.1237 12.1435 33.1552 11.9663 32.4975 11.9063C31.8399 11.8464 33.1501 11.3617 34.8379 11.6692C36.5257 11.9767 37.3144 11.7813 36.7261 11.2809C36.1352 10.7806 34.0955 10.8978 33.4147 11.0177C32.7365 11.135 32.6825 10.8353 33.0242 10.7311Z" fill="#EAA200" fill-opacity="0.87"></path><path d="M50.9967 48.5069C53.6094 43.0109 59.1327 35.1722 59.1327 35.1722L69.519 37.9867C69.519 37.9867 64.3914 41.9269 55.7442 53.1637C55.8547 53.5624 55.9626 53.995 56.0628 54.451C53.8894 53.0543 52.1271 50.9278 50.9967 48.5069Z" fill="#D17D66" fill-opacity="0.87"></path><path d="M69.519 37.9866C69.519 37.9866 64.3914 41.9268 55.7442 53.1637C57.6067 59.8479 58.0177 75.0771 58.0177 75.0771L54.6807 74.4908C54.6807 74.4908 49.5864 56.6583 49.6583 52.5878C49.7302 48.5173 59.1327 35.1696 59.1327 35.1696L69.519 37.984V37.9866Z" fill="#DD977F" fill-opacity="0.87"></path><path d="M58.3542 73.2269C58.3542 73.2269 57.3035 73.9435 56.0833 73.9435C54.863 73.9435 54.0409 73.4119 53.9022 73.6725C53.8611 73.9435 54.7911 76.8986 54.9246 77.7352C55.0582 78.5717 51.2048 78.9626 49.0211 80.0049C46.8375 81.0473 46.966 81.4382 50.786 81.6337C54.6061 81.8291 59.071 81.4148 59.649 81.3444C60.227 81.274 59.744 79.4082 59.1044 77.7352C58.4621 76.0621 58.3568 73.2295 58.3568 73.2295L58.3542 73.2269Z" fill="#834D29" fill-opacity="0.87"></path><path d="M52.1604 45.6143C54.5573 40.405 59.4871 34.4478 59.4871 34.4478L70.8934 37.5384C70.8934 37.5384 65.5653 42.8207 58.0562 50.4431C56.132 49.7134 52.3428 47.5036 52.1604 45.6143Z" fill="#5E2D17" fill-opacity="0.87"></path><path d="M54.1978 41.8643C56.6203 37.9111 59.4847 34.4478 59.4847 34.4478L70.891 37.5384C70.891 37.5384 66.6753 41.7184 60.4584 48.0065C60.3325 44.5198 58.059 41.1763 54.1978 41.8617V41.8643Z" fill="#512514" fill-opacity="0.87"></path><path d="M75.4095 56.3247H75.556V83.4865H75.4095V56.3247Z" fill="#FFFFFF" fill-opacity="0.87"></path><path d="M79.9953 82.6943L70.8369 57.169L70.973 57.1195L80.1314 82.6422L79.9953 82.6943Z" fill="#FFFFFF" fill-opacity="0.87"></path><path d="M66.9335 59.4549L84.1467 80.264L84.0345 80.3595L66.8213 59.5503L66.9335 59.4549Z" fill="#FFFFFF" fill-opacity="0.87"></path><path d="M63.9279 63.0525L87.117 76.6334L87.0438 76.762L63.8547 63.1811L63.9279 63.0525Z" fill="#FFFFFF" fill-opacity="0.87"></path><path d="M62.3115 67.4748L88.6837 72.1919L88.6582 72.3382L62.2861 67.6211L62.3115 67.4748Z" fill="#FFFFFF" fill-opacity="0.87"></path><path d="M88.6555 67.4738L88.681 67.6201L62.3096 72.3418L62.2842 72.1955L88.6555 67.4738Z" fill="#FFFFFF" fill-opacity="0.87"></path><path d="M87.0371 63.0436L87.1104 63.1722L63.9283 76.7655L63.855 76.6369L87.0371 63.0436Z" fill="#FFFFFF" fill-opacity="0.87"></path><path d="M84.0329 59.453L84.1451 59.5485L66.9283 80.3546L66.8161 80.2591L84.0329 59.453Z" fill="#FFFFFF" fill-opacity="0.87"></path><path d="M70.973 82.6943L70.8369 82.6422L79.9953 57.1195L80.1314 57.169L70.973 82.6943Z" fill="#FFFFFF" fill-opacity="0.87"></path><path d="M79.5508 69.8417C79.5508 72.1193 77.7294 73.967 75.4841 73.967C73.2388 73.967 71.4174 72.1193 71.4174 69.8417C71.4174 67.5641 73.2388 65.7165 75.4841 65.7165C77.7294 65.7165 79.5508 67.5641 79.5508 69.8417ZM78.8803 69.8417C78.8803 67.9394 77.3594 66.3967 75.4841 66.3967C73.6087 66.3967 72.0879 67.9394 72.0879 69.8417C72.0879 71.7441 73.6087 73.2868 75.4841 73.2868C77.3594 73.2868 78.8803 71.7441 78.8803 69.8417Z" fill="#D8D8D7" fill-opacity="0.87"></path><path d="M91.2062 69.8417C91.2062 78.6498 84.1672 85.7901 75.4841 85.7901C66.8009 85.7901 59.7619 78.6498 59.7619 69.8417C59.7619 61.0336 66.8009 53.8933 75.4841 53.8933C84.1672 53.8933 91.2062 61.0336 91.2062 69.8417ZM88.6115 69.8417C88.6115 62.4852 82.7337 56.5227 75.4815 56.5227C68.2293 56.5227 62.3515 62.4852 62.3515 69.8417C62.3515 77.1983 68.2293 83.1607 75.4815 83.1607C82.7337 83.1607 88.6115 77.1983 88.6115 69.8417Z" fill="#282828" fill-opacity="0.87"></path><path d="M89.3104 69.8418C89.3104 77.5866 83.1192 83.867 75.4842 83.867C67.8492 83.867 61.658 77.5866 61.658 69.8418C61.658 62.0969 67.8492 55.8166 75.4842 55.8166C83.1192 55.8166 89.3104 62.0969 89.3104 69.8418ZM88.3856 69.8418C88.3856 62.6129 82.608 56.7547 75.4842 56.7547C68.3604 56.7547 62.5828 62.6155 62.5828 69.8418C62.5828 77.0681 68.3604 82.9288 75.4842 82.9288C82.608 82.9288 88.3856 77.0681 88.3856 69.8418Z" fill="#CECECE" fill-opacity="0.87"></path><path d="M23.4935 56.3247H23.6399V83.4865H23.4935V56.3247Z" fill="#FFFFFF" fill-opacity="0.87"></path><path d="M28.0761 82.6943L18.9177 57.169L19.0539 57.1195L28.2123 82.6422L28.0761 82.6943Z" fill="#FFFFFF" fill-opacity="0.87"></path><path d="M15.0152 59.4529L32.2284 80.2621L32.1162 80.3576L14.903 59.5484L15.0152 59.4529Z" fill="#FFFFFF" fill-opacity="0.87"></path><path d="M12.0078 63.0525L35.1968 76.6334L35.1236 76.762L11.9346 63.1811L12.0078 63.0525Z" fill="#FFFFFF" fill-opacity="0.87"></path><path d="M10.3924 67.4737L36.7646 72.1908L36.7392 72.3371L10.367 67.62L10.3924 67.4737Z" fill="#FFFFFF" fill-opacity="0.87"></path><path d="M36.7349 67.4755L36.7603 67.6218L10.389 72.3435L10.3635 72.1972L36.7349 67.4755Z" fill="#FFFFFF" fill-opacity="0.87"></path><path d="M35.1201 63.0438L35.1934 63.1724L12.0137 76.7697L11.9404 76.6411L35.1201 63.0438Z" fill="#FFFFFF" fill-opacity="0.87"></path><path d="M32.1152 59.4492L32.2274 59.5447L15.0106 80.3508L14.8984 80.2553L32.1152 59.4492Z" fill="#FFFFFF" fill-opacity="0.87"></path><path d="M19.0539 82.6943L18.9177 82.6422L28.0761 57.1195L28.2123 57.169L19.0539 82.6943Z" fill="#FFFFFF" fill-opacity="0.87"></path><path d="M27.632 69.8417C27.632 72.1193 25.8106 73.967 23.5653 73.967C21.32 73.967 19.4986 72.1193 19.4986 69.8417C19.4986 67.5641 21.32 65.7165 23.5653 65.7165C25.8106 65.7165 27.632 67.5641 27.632 69.8417ZM26.9615 69.8417C26.9615 67.9394 25.4406 66.3967 23.5653 66.3967C21.6899 66.3967 20.1691 67.9394 20.1691 69.8417C20.1691 71.7441 21.6899 73.2868 23.5653 73.2868C25.4406 73.2868 26.9615 71.7441 26.9615 69.8417Z" fill="#D8D8D7" fill-opacity="0.87"></path><path d="M25.51 69.8418C25.51 70.9311 24.6391 71.8145 23.5653 71.8145C22.4915 71.8145 21.6206 70.9311 21.6206 69.8418C21.6206 68.7525 22.4915 67.8691 23.5653 67.8691C24.6391 67.8691 25.51 68.7525 25.51 69.8418Z" fill="#282828" fill-opacity="0.87"></path><path d="M39.2874 69.8417C39.2874 78.6498 32.2484 85.7901 23.5652 85.7901C14.8821 85.7901 7.84311 78.6498 7.84311 69.8417C7.84311 61.0336 14.8821 53.8933 23.5652 53.8933C32.2484 53.8933 39.2874 61.0336 39.2874 69.8417ZM36.6927 69.8417C36.6927 62.4852 30.8149 56.5227 23.5627 56.5227C16.3104 56.5227 10.4326 62.4852 10.4326 69.8417C10.4326 77.1983 16.3104 83.1607 23.5627 83.1607C30.8149 83.1607 36.6927 77.1983 36.6927 69.8417Z" fill="#282828" fill-opacity="0.87"></path><path d="M37.3914 69.8418C37.3914 77.5866 31.2001 83.867 23.5651 83.867C15.9301 83.867 9.73892 77.5866 9.73892 69.8418C9.73892 62.0969 15.9301 55.8166 23.5651 55.8166C31.2001 55.8166 37.3914 62.0969 37.3914 69.8418ZM36.4665 69.8418C36.4665 62.6129 30.6889 56.7547 23.5651 56.7547C16.4414 56.7547 10.6638 62.6155 10.6638 69.8418C10.6638 77.0681 16.4414 82.9288 23.5651 82.9288C30.6889 82.9288 36.4665 77.0681 36.4665 69.8418Z" fill="#CECECE" fill-opacity="0.87"></path><path d="M31.7732 45.7133H63.4178V46.8807H31.7732V45.7133Z" fill="#EBC13A" fill-opacity="0.87"></path><path d="M24.6957 37.1553C24.8242 37.1762 24.9526 37.1996 25.0785 37.2335C25.2994 37.2935 25.5126 37.3534 25.7361 37.3873V38.0257H25.1684C23.7889 38.0257 22.6636 39.1645 22.6636 40.5665C22.6636 41.9685 23.7863 43.1073 25.1684 43.1073H27.8016C28.0482 43.1073 28.2486 43.3106 28.2486 43.5608C28.2486 43.8109 28.0482 44.0142 27.8016 44.0142H25.1684C23.2956 44.0142 21.7722 42.4689 21.7722 40.5691C21.7722 38.831 23.0464 37.3951 24.6983 37.1605L24.6957 37.1553Z" fill="#969696" fill-opacity="0.87"></path><path d="M22.9642 41.7653C23.3881 42.5601 24.2179 43.1021 25.1684 43.1021H27.8016C28.0482 43.1021 28.2486 43.3054 28.2486 43.5555C28.2486 43.8057 28.0482 44.009 27.8016 44.009H25.1684C23.8968 44.009 22.7895 43.2949 22.2064 42.2448L22.9642 41.7653Z" fill="#282828" fill-opacity="0.87"></path><path d="M24.8883 41.5099C25.4329 41.2806 27.28 40.96 27.28 40.96C27.28 40.96 36.7621 35.1931 37.4069 34.1038C38.0517 33.0145 39.1795 27.8365 39.1795 27.8365L43.1562 28.9258C43.1562 28.9258 42.3496 33.1761 40.8467 36.4465C39.4492 39.4825 33.5406 40.8532 29.7359 42.2109C29.5998 42.3151 29.4379 42.422 29.2427 42.5262C28.2639 43.0448 26.8561 42.7816 27.2517 44.009C27.2517 44.009 26.6095 44.7986 26.1753 44.1263C26.1753 44.1263 25.2454 44.8481 25.1632 44.1158C25.1143 44.0507 24.3616 44.3608 24.3925 43.6103C24.3925 43.6103 23.5575 43.9517 23.5421 43.1699C23.5267 42.3881 24.3437 41.7366 24.8908 41.5073L24.8883 41.5099Z" fill="#DD977F" fill-opacity="0.87"></path><path d="M44.5356 26.9765L43.1561 30.3434L37.8948 28.9127L39.0946 23.8989L44.5356 26.9765Z" fill="#1877B8" fill-opacity="0.87"></path><path d="M32.0378 45.4865C32.2433 45.4865 32.4283 45.3432 32.4745 45.1321L33.1116 42.1926C33.2683 41.4734 32.9266 40.7307 32.2818 40.3893L27.1696 37.6817C26.4708 37.3117 25.6847 37.1162 24.896 37.1162H23.2827C21.4099 37.1162 19.8865 38.6616 19.8865 40.5613C19.8865 42.461 21.4099 44.0064 23.2827 44.0064H25.9159C26.1625 44.0064 26.3629 43.8031 26.3629 43.5529C26.3629 43.3028 26.1625 43.0995 25.9159 43.0995H23.2827C21.9032 43.0995 20.778 41.9607 20.778 40.5587C20.778 39.1567 21.9006 38.0179 23.2827 38.0179H24.896C25.5408 38.0179 26.1831 38.1769 26.756 38.4792L31.8682 41.1867C32.1559 41.3379 32.3075 41.6688 32.2382 41.9894L31.601 44.9289C31.5471 45.1738 31.7012 45.4162 31.9401 45.4683C31.9735 45.4761 32.0044 45.4787 32.0378 45.4787V45.4865Z" fill="#A2A2A2" fill-opacity="0.87"></path><path d="M21.0812 41.7653C21.5051 42.5601 22.3349 43.1021 23.2854 43.1021H25.9186C26.1652 43.1021 26.3656 43.3054 26.3656 43.5555C26.3656 43.8057 26.1652 44.009 25.9186 44.009H23.2854C22.0138 44.009 20.9065 43.2949 20.3234 42.2448L21.0812 41.7653Z" fill="#282828" fill-opacity="0.87"></path><path d="M23.5164 69.9538C23.3031 69.8496 23.2106 69.589 23.3134 69.3727C24.1329 67.6345 27.4109 60.6454 27.9555 58.988C28.5798 57.0883 31.642 44.2592 31.6728 44.1289L32.7903 44.4025C32.6645 44.9315 29.6845 57.4114 29.0448 59.3554C28.4719 61.1014 24.9524 68.0332 24.0815 69.7584C23.9762 69.9695 23.7219 70.0555 23.5112 69.9512L23.5164 69.9538Z" fill="#EBC13A" fill-opacity="0.87"></path><path d="M65.4675 39.4962L66.4386 39.8208L64.5643 45.5901L63.5932 45.2654L65.4675 39.4962Z" fill="#A2A2A2" fill-opacity="0.87"></path><path d="M68.8331 37.4211C68.8331 37.4211 67.2326 38.1378 63.9931 38.0622C60.7536 37.9866 59.7132 38.7424 60.5301 39.2714C61.3496 39.8004 62.8165 40.7072 66.2153 40.7072C69.614 40.7072 71.0295 39.4616 71.0655 38.5912C71.1015 37.7234 70.377 37.0042 68.8331 37.4211Z" fill="#282828" fill-opacity="0.87"></path><path d="M37.4062 51.7628L38.3249 50.841C38.7041 50.4604 39.3157 50.4638 39.6909 50.8485L44.8129 56.1007C45.188 56.4854 45.1847 57.1058 44.8055 57.4864L43.8868 58.4082C43.5076 58.7888 42.896 58.7854 42.5208 58.4007L37.3989 53.1485C37.0237 52.7638 37.027 52.1434 37.4062 51.7628Z" fill="#D8792D" fill-opacity="0.87"></path><path d="M36.8236 51.2405L37.8666 50.1955L37.8487 50.1773C37.5635 49.8854 37.0985 49.8828 36.8108 50.1721C36.5231 50.4613 36.5205 50.933 36.8057 51.2249L36.8236 51.2431V51.2405Z" fill="#D8792D" fill-opacity="0.87"></path><path d="M36.6414 51.2886L37.9144 50.0112L38.5612 50.6745L37.2882 51.9519L36.6414 51.2886Z" fill="#282828" fill-opacity="0.87"></path><path d="M44.3866 57.057C44.6255 56.8173 44.6281 56.4238 44.3917 56.1814L39.3437 51.0034C39.1073 50.761 38.7194 50.7584 38.4805 50.9982C38.2416 51.2379 38.239 51.6314 38.4754 51.8738L43.5234 57.0518C43.7597 57.2941 44.1477 57.2967 44.3866 57.057Z" fill="#DD8B52" fill-opacity="0.87"></path><path d="M55.5641 73.4666L30.8429 48.1498L31.6906 47.3628L55.0863 71.2073L63.8953 44.0846L64.9871 44.4494L55.5641 73.4666Z" fill="#EBC13A" fill-opacity="0.87"></path><path d="M41.435 58.2323C41.4607 58.2323 41.4863 58.2192 41.5069 58.1984L42.8402 56.7104C43.2743 56.2257 43.2615 55.4778 42.8068 55.0113L40.4048 52.533C40.1762 52.2959 39.8705 52.1656 39.5442 52.163C39.2154 52.1604 38.9097 52.2881 38.6785 52.52L37.3888 53.8126C37.3477 53.8517 37.3477 53.9194 37.3888 53.9585C37.4274 54.0002 37.4942 54.0002 37.5327 53.9585L38.8223 52.6659C39.015 52.4731 39.2693 52.3689 39.5442 52.3689C39.8165 52.3689 40.0708 52.4809 40.2609 52.6764L42.6629 55.1546C43.0406 55.5429 43.0534 56.1657 42.6912 56.5697L41.3579 58.0577C41.3194 58.0994 41.3219 58.1645 41.3656 58.2036C41.3862 58.2218 41.4118 58.2323 41.4401 58.2297L41.435 58.2323Z" fill="#282828" fill-opacity="0.87"></path><path d="M75.6567 69.1367L75.8014 70.2949L55.3998 72.9166L55.2552 71.7584L75.6567 69.1367Z" fill="#EBC13A" fill-opacity="0.87"></path><path d="M32.834 44.6891L31.5238 44.3973C31.3491 44.3582 31.2361 44.181 31.2746 44.0012C31.3131 43.8239 31.4878 43.7093 31.6651 43.7484L32.9753 44.0402C33.15 44.0793 33.263 44.2565 33.2245 44.4363C33.1859 44.6136 33.0112 44.7282 32.834 44.6891Z" fill="#282828" fill-opacity="0.87"></path><path d="M55.7134 77.4537L55.6209 77.0784L75.6152 72.0021L75.8156 67.8299L55.662 67.2201L55.6723 66.8318L76.2164 67.4521L75.9852 72.3096L55.7134 77.4537Z" fill="#282828" fill-opacity="0.87"></path><path d="M77.9916 69.8417C77.9916 71.2463 76.8689 72.3852 75.4843 72.3852C74.0996 72.3852 72.9769 71.2463 72.9769 69.8417C72.9769 68.4371 74.0996 67.2983 75.4843 67.2983C76.8689 67.2983 77.9916 68.4371 77.9916 69.8417Z" fill="#A2A2A2" fill-opacity="0.87"></path><path d="M64.1213 46.4095L75.8638 69.3204L74.9566 69.7989L63.2142 46.8879L64.1213 46.4095Z" fill="#EBC13A" fill-opacity="0.87"></path><path d="M77.113 69.8001C77.113 70.6705 76.4168 71.3793 75.5562 71.3793C74.6956 71.3793 73.9994 70.6731 73.9994 69.8001C73.9994 68.9271 74.6956 68.2209 75.5562 68.2209C76.4168 68.2209 77.113 68.9271 77.113 69.8001Z" fill="#282828" fill-opacity="0.87"></path><path d="M57.5321 82.465L53.825 82.6161C53.5476 82.6265 53.3138 82.4076 53.301 82.1262C53.2907 81.8448 53.5065 81.6076 53.7839 81.5946L57.491 81.4434C57.7684 81.433 58.0022 81.6519 58.015 81.9334C58.0253 82.2148 57.8095 82.4519 57.5321 82.465Z" fill="#A2A2A2" fill-opacity="0.87"></path><path d="M55.6825 82.4259C55.9368 82.4207 56.1372 82.2044 56.132 81.949L55.8417 70.0164C55.8366 69.7584 55.6516 70.7799 55.3973 70.7851C55.143 70.7903 54.9426 71.0066 54.9477 71.262L55.2124 81.9725C55.2175 82.2304 55.4307 82.4337 55.6825 82.4285V82.4259Z" fill="#D8D8D7" fill-opacity="0.87"></path><path d="M55.3025 77.584C52.3471 77.584 49.9513 75.1537 49.9513 72.1558C49.9513 69.1579 52.3471 66.7276 55.3025 66.7276C58.2579 66.7276 60.6537 69.1579 60.6537 72.1558C60.6537 75.1537 58.2579 77.584 55.3025 77.584Z" fill="#A2A2A2" fill-opacity="0.87"></path><path d="M55.3021 66.7277C56.4916 66.7277 57.5885 67.1212 58.4748 67.7857C58.5031 68.0124 58.5211 68.2443 58.5211 68.4789C58.5211 71.4757 56.1242 73.9071 53.1699 73.9071C51.9804 73.9071 50.8835 73.5136 49.9972 72.849C49.9689 72.6223 49.951 72.3904 49.951 72.1533C49.951 69.1564 52.3478 66.7251 55.3021 66.7251V66.7277Z" fill="#BAB9B9" fill-opacity="0.87"></path><path d="M56.8589 72.1558C56.8589 73.0262 56.1628 73.735 55.3022 73.735C54.4415 73.735 53.7454 73.0288 53.7454 72.1558C53.7454 71.2828 54.4415 70.5766 55.3022 70.5766C56.1628 70.5766 56.8589 71.2828 56.8589 72.1558Z" fill="#282828" fill-opacity="0.87"></path><path d="M55.6825 72.5858C55.9368 72.5806 56.1372 72.3643 56.132 72.1063L55.8417 60.1737C55.8366 59.9157 55.6516 60.9372 55.3973 60.9424C55.143 60.9477 54.9426 61.1639 54.9477 61.4193L55.2124 72.1298C55.2175 72.3878 55.4307 72.591 55.6825 72.5858Z" fill="#D8D8D7" fill-opacity="0.87"></path><path d="M57.7223 63.7595L52.908 63.8767C52.5484 63.8845 52.2504 63.6657 52.2427 63.3816C52.235 63.1002 52.5227 62.863 52.8823 62.8552L57.6966 62.7379C58.0563 62.7301 58.3543 62.9516 58.362 63.2331C58.3697 63.5145 58.082 63.7516 57.7223 63.7595Z" fill="#A2A2A2" fill-opacity="0.87"></path><path d="M40.4331 24.4566C40.4331 24.4566 44.7567 31.3623 58.678 33.5774C62.9014 31.1669 62.8372 29.7336 62.8372 29.7336C62.8372 29.7336 52.7539 24.3914 49.2858 24.0005C45.8177 23.6096 40.4357 24.4566 40.4357 24.4566H40.4331Z" fill="#FFFFFF" fill-opacity="0.87"></path><path d="M74.6055 33.0457C74.6055 33.0457 75.8951 40.2408 68.3013 40.7489C60.7074 41.2571 46.5652 40.7463 46.5652 40.7463C50.8913 42.0493 56.2322 52.6477 56.6407 56.3898C54.2772 56.5358 53.4629 56.6426 53.4629 56.6426C53.4629 56.6426 43.1073 45.9634 41.1215 41.9086C39.0124 37.5957 39.4029 36.0217 41.5505 34.7135C43.7008 33.4054 59.0607 31.6646 59.0607 31.6646L74.6055 33.0457Z" fill="#E5AA92" fill-opacity="0.87"></path><path d="M56.6071 54.623C56.6071 54.623 55.8698 55.6628 54.6496 55.6628C53.4293 55.6628 52.0266 55.3032 51.8879 55.5638C51.8468 55.8348 53.866 58.2166 53.997 59.0531C54.1281 59.8896 50.2772 60.2805 48.0935 61.3229C45.9099 62.3653 46.0384 62.7562 49.8584 62.9516C53.6785 63.1471 58.1434 62.7327 58.7214 62.6624C59.2994 62.592 58.8164 60.7261 58.1768 59.0531C57.5371 57.3801 56.6097 54.623 56.6097 54.623H56.6071Z" fill="#834D29" fill-opacity="0.87"></path><path d="M47.5953 41.2128C47.5953 41.2128 44.5717 40.0271 43.1561 39.6362C41.7381 39.2453 41.7381 38.6929 41.7381 38.6929C42.2185 39.0525 43.3283 39.1489 44.2916 39.3287C45.255 39.5085 46.8709 40.3164 47.5953 41.2154V41.2128Z" fill="#DD977F" fill-opacity="0.87"></path><path d="M46.9221 33.3637C52.1243 32.4516 59.0605 31.6646 59.0605 31.6646L74.6054 33.0457C74.6054 33.0457 75.9104 40.7046 68.3166 41.2154C62.151 41.6271 51.6542 40.9027 47.9266 40.7906C46.8502 38.4974 46.4828 35.8185 46.9196 33.3637H46.9221Z" fill="#3C96D4" fill-opacity="0.87"></path><path d="M56.7853 35.6182C52.7719 36.6438 48.4548 36.7317 46.7979 36.6474C46.6956 37.0307 46.9538 38.2763 47.1634 38.7201C48.8759 39.2195 53.3635 39.5205 57.9081 38.3218C62.4526 37.1231 65.8976 34.8912 66.6712 33.9013C66.47 33.8527 65.1931 33.7212 64.7419 33.7743C64.2906 33.8273 63.1458 33.5487 62.6298 33.4027C62.3539 33.7139 60.7988 34.5927 56.7853 35.6182Z" fill="#1C649F" fill-opacity="0.87"></path><path d="M62.9012 35.9879C61.3598 36.2484 60.3322 38.0726 60.5891 39.8968C59.2558 37.4159 58.6907 33.7676 56.3991 31.9851C57.9996 31.7845 59.0606 31.6646 59.0606 31.6646L74.6055 33.0457C74.6055 33.0457 75.5868 38.8283 70.8625 40.6786C70.5773 39.4981 70.1971 38.5287 69.5394 37.5983C68.255 35.7742 65.2133 35.2087 62.9012 35.9905V35.9879Z" fill="#0A4E75" fill-opacity="0.2"></path><path d="M22.1679 41.8513C22.7125 41.6219 24.5596 41.3014 24.5596 41.3014C24.5596 41.3014 34.0417 35.5344 34.6865 34.4452C35.3313 33.3559 36.4591 28.1779 36.4591 28.1779L40.4359 29.2671C40.4359 29.2671 39.6292 33.5174 38.1263 36.7879C36.7288 39.8238 30.8202 41.1946 27.0155 42.5523C26.8794 42.6565 26.7175 42.7633 26.5223 42.8676C25.5435 43.3862 24.3489 43.0448 24.6906 44.009C24.6906 44.009 23.8891 45.1426 23.4549 44.4676C23.4549 44.4676 22.525 45.1895 22.4428 44.4572C22.394 44.3921 21.6412 44.7022 21.6721 43.9517C21.6721 43.9517 20.8371 44.293 20.8217 43.5113C20.8063 42.7295 21.6233 42.078 22.1704 41.8487L22.1679 41.8513Z" fill="#E5AA92" fill-opacity="0.87"></path><path d="M38.925 16.5527C38.925 16.5527 48.0089 13.4203 61.5268 21.3086C68.8664 25.5927 73.023 28.7381 74.6055 33.0457C71.8746 35.1722 68.4502 33.8692 66.4387 33.8353C59.9726 33.7311 59.3509 31.4874 53.5758 32.3526C46.3827 33.4288 41.3475 27.0859 41.3475 27.0859C41.3475 27.0859 41.1857 29.6476 40.7027 30.3017C38.3932 29.8665 35.9219 29.1029 35.9219 29.1029C35.9219 25.8325 35.8396 19.1795 38.925 16.5527Z" fill="#1C649F" fill-opacity="0.87"></path><path d="M54.1355 25.0854C50.1065 26.1823 55.5236 30.4713 58.7358 32.4786L58.9599 32.6086C59.1839 32.7385 64.3618 33.8397 64.9277 33.805C65.4936 33.7703 67.8881 34.0454 68.2271 34.0454C68.5661 34.0454 66.7259 29.2471 63.9657 27.2396L63.9031 27.1941C61.1745 25.2093 59.1335 23.7247 54.1355 25.0854Z" fill="#FF4C23" fill-opacity="0.87"></path><path d="M40.9468 29.7414C40.9468 29.7414 41.5993 24.0448 41.738 22.6116C41.8767 21.1783 44.0604 21.3086 44.0604 21.3086C42.7322 21.8298 42.5036 26.0514 40.9468 29.7441V29.7414Z" fill="#3C96D4" fill-opacity="0.87"></path><path d="M37.6787 21.6741C37.2233 23.8083 36.7081 27.4981 36.6388 29.1431C36.6268 29.1842 36.601 29.2706 36.5938 29.2873C36.5846 29.3081 36.5025 29.2581 36.1741 29.1748C35.9113 29.1081 35.8595 29.0188 35.8664 28.9824C35.8579 28.2203 35.4577 26.6751 35.8664 23.0354C36.3773 18.4858 38.7212 16.6085 38.8926 16.4936C39.0298 16.4018 40.5654 16.1475 40.9076 16.0956C40.0908 16.9622 38.1342 19.5398 37.6787 21.6741Z" fill="#FF4C23" fill-opacity="0.87"></path></g><g clip-path="url(#clip1_783_569)" fill-opacity="0.87" fill="#000000"><path d="M99.5412 33.8102C99.4867 33.8208 99.4304 33.8323 99.3848 33.8633C99.266 33.9431 99.2615 34.1248 99.3366 34.2463C99.4116 34.3677 99.5412 34.4421 99.6654 34.5122C99.3634 34.6363 99.0623 34.7595 98.7603 34.8835C98.6531 34.9279 98.5423 34.974 98.4645 35.059C98.3108 35.2275 98.3412 35.5093 98.4913 35.6813C98.6414 35.8532 98.8809 35.925 99.1096 35.9259C98.9425 36.1058 98.8988 36.3895 99.0042 36.6111C99.1096 36.8326 99.358 36.9789 99.6046 36.9647C99.4652 37.1624 99.4661 37.4469 99.6046 37.6446C99.744 37.8422 100.014 37.9388 100.249 37.8768C100.119 38.0957 100.268 38.3988 100.5 38.5043C100.732 38.6098 101.008 38.5619 101.244 38.4644C101.48 38.3669 101.695 38.2233 101.934 38.1312C102.192 38.031 102.472 37.9947 102.735 37.9051C102.997 37.8156 103.256 37.6552 103.361 37.4008C103.431 37.2306 103.423 37.0401 103.41 36.8566C103.342 35.91 103.148 34.9713 102.836 34.0743C102.62 33.453 102.265 33.2677 101.657 33.3874C100.95 33.5256 100.245 33.671 99.5394 33.8119L99.5412 33.8102Z" fill="#EBB28A" fill-opacity="0.87"></path><path d="M103.338 36.6093C102.889 36.7954 102.463 37.0338 102.069 37.3157C102.03 37.3432 101.987 37.3804 101.992 37.4274C102.038 37.2749 101.925 37.1092 101.778 37.0454C101.63 36.9815 101.461 36.9975 101.303 37.0285C101.315 37.0108 101.326 36.9922 101.337 36.9745C101.434 36.8211 101.416 36.5348 101.287 36.4054C101.158 36.2769 100.937 36.2521 100.782 36.3487C101.096 36.1049 101.121 36.034 101.14 35.8178C101.152 35.6804 101.046 35.5545 100.919 35.4987C100.792 35.4428 100.648 35.4411 100.51 35.4402C100.656 35.3347 100.735 35.1432 100.704 34.9669C100.672 34.7896 100.533 34.6362 100.36 34.5866C100.494 34.5113 100.656 34.6061 100.794 34.6752C101.41 34.9881 102.163 34.8064 102.799 34.5361C102.877 34.5033 102.963 34.4687 103.042 34.498C103.089 34.5157 103.125 34.5529 103.158 34.591C103.446 34.9181 103.648 35.3187 103.74 35.7433C103.758 35.8328 103.773 35.9259 103.752 36.0154C103.696 36.253 103.403 36.4045 103.407 36.6483C103.393 36.6102 103.352 36.6474 103.338 36.6093Z" fill="#D3976E" fill-opacity="0.87"></path><path d="M111.357 53.4368C111.564 54.0173 111.772 54.5979 111.98 55.1793C112.074 55.4408 112.167 55.7032 112.286 55.9558C112.449 56.305 112.659 56.6294 112.867 56.9529C113.734 58.3011 114.616 59.6457 115.319 61.0843C115.506 61.4681 115.682 61.8572 115.906 62.2197C116.888 63.8089 118.911 64.9009 120.725 64.4143C121.529 64.1989 122.238 63.7309 122.93 63.2718C124.29 62.3686 125.65 61.4645 126.956 60.4851C127.613 59.994 128.256 59.4826 128.875 58.9446C129.513 58.3915 130.126 57.8083 130.783 57.2756C132.368 55.9886 134.2 55.0021 136.15 54.3816C136.698 54.2079 137.255 54.0616 137.794 53.8658C137.778 53.6814 137.767 53.4961 137.738 53.3127C137.726 53.2302 137.709 53.1478 137.69 53.0672C137.446 52.0478 136.664 51.1624 135.668 50.8034C135.18 50.6279 134.71 50.619 134.211 50.7006C134.032 51.0569 133.658 51.2492 133.299 51.4504C131.895 52.2384 130.28 52.546 128.749 53.053C125.905 53.9978 123.309 55.6704 121.283 57.865C121.081 57.5238 120.854 57.1435 120.729 56.7748C120.607 56.4096 120.556 56.0249 120.499 55.6429C120.242 53.95 119.785 52.2012 118.614 50.9461C118.509 50.8353 118.397 50.7263 118.256 50.666C118.137 50.6128 118.002 50.5995 117.871 50.5898C115.847 50.4577 113.885 51.3485 112.228 52.5087C111.953 52.702 111.679 52.8642 111.508 53.107C111.439 53.2019 111.386 53.31 111.355 53.4359L111.357 53.4368Z" fill="#EBB28A" fill-opacity="0.87"></path><path d="M96.4294 78.8292C96.5973 78.893 96.7224 79.08 96.8261 79.2413C97.0789 79.6366 97.3997 79.9876 97.7714 80.2775C98.0341 80.4804 98.3316 80.6595 98.664 80.6896C98.8963 80.7118 99.1268 80.6621 99.3547 80.6116C99.3698 80.6081 99.3841 80.6045 99.3993 80.6019C99.7916 80.515 100.182 80.4273 100.575 80.3404C100.837 77.7921 101.019 75.2155 101.739 72.7567C102.243 71.0345 103.012 69.3655 103.176 67.5795C103.248 66.8004 103.371 65.5648 103.325 64.7839C103.265 63.7389 103.171 63.3782 102.93 62.0814C102.848 61.64 103.054 61.2172 103.334 60.8636C104.968 58.817 106.604 56.7695 108.238 54.7238C108.516 54.3763 108.805 53.9996 108.843 53.5564C108.555 53.6247 108.365 53.5564 108.069 53.5316C107.868 53.5157 107.669 53.4953 107.473 53.4713C104.893 53.1717 102.646 52.3554 100.171 51.4309C99.2662 53.107 98.7971 55.0668 98.0502 56.8191C97.7821 57.4511 97.4345 58.0556 97.2701 58.723C97.1754 59.1059 97.1433 59.5021 97.1147 59.8957C96.9985 61.4096 97.3032 61.1835 97.2246 62.6983C97.0477 66.1339 97.1772 71.1462 97.2406 74.5064C97.2532 75.1472 97.2692 75.7907 97.1897 76.4262C97.0843 77.2639 96.8127 78.0749 96.4303 78.8283L96.4294 78.8292Z" fill="#EBB28A" fill-opacity="0.87"></path><path d="M111.357 53.4368C111.564 54.0173 111.772 54.5979 111.98 55.1794C112.074 55.4408 112.167 55.7032 112.286 55.9558C112.449 56.305 112.659 56.6294 112.867 56.953C113.734 58.3011 114.616 59.6457 115.319 61.0843C115.506 61.4681 115.682 61.8572 115.906 62.2197C116.888 63.8089 118.911 64.9009 120.725 64.4143C121.529 64.1989 122.238 63.7309 122.93 63.2718C124.29 62.3686 125.65 61.4645 126.956 60.4851C127.613 59.9941 128.256 59.4826 128.875 58.9446C129.513 58.3915 130.126 57.8083 130.783 57.2756C132.368 55.9886 134.2 55.0021 136.15 54.3816C136.698 54.2079 137.255 54.0617 137.794 53.8658C137.778 53.6814 137.767 53.4962 137.738 53.3127C137.726 53.2303 137.709 53.1478 137.69 53.0672C135.892 53.6229 133.198 54.5385 131.622 55.4612C129.102 56.937 125.279 60.3628 122.76 61.8279C120.24 63.2931 118.763 63.4659 117.286 61.742C115.809 60.018 112.953 53.8587 112.953 53.8587L111.51 53.1071C111.441 53.2019 111.388 53.31 111.357 53.4359V53.4368Z" fill="#D3976E" fill-opacity="0.87"></path><path d="M99.3993 80.6019C99.7916 80.515 100.182 80.4273 100.575 80.3404C100.837 77.7921 101.019 75.2155 101.739 72.7567C102.243 71.0345 103.012 69.3655 103.176 67.5795C103.248 66.8004 103.371 65.5648 103.325 64.7839C103.265 63.7389 103.171 63.3782 102.93 62.0814C102.848 61.64 103.054 61.2172 103.334 60.8636C104.968 58.817 106.604 56.7695 108.238 54.7238C108.516 54.3763 108.805 53.9996 108.843 53.5564C108.555 53.6247 108.365 53.5564 108.069 53.5316C107.868 53.5157 107.669 53.4953 107.473 53.4713C106.388 54.8496 102.853 59.3452 102.063 60.3628C101.127 61.5691 102.13 63.4907 102.063 66.3661C101.996 69.2405 100.465 73.6714 100.362 75.5071C100.287 76.8375 99.8068 79.0676 99.4002 80.601L99.3993 80.6019Z" fill="#D3976E" fill-opacity="0.87"></path><path d="M88.0991 81.3899C88.2036 81.5459 88.3635 81.6558 88.519 81.7621C90.4105 83.0412 92.4379 84.2156 94.6823 84.6605C95.8537 84.8936 97.0546 84.922 98.2492 84.9477C99.0149 84.9654 99.7797 84.9814 100.545 84.9991C100.83 85.0053 100.953 84.6286 100.898 84.3512C100.853 84.1225 100.748 83.8867 100.769 83.6625C100.475 83.627 100.188 83.6306 99.9629 83.6598C99.4974 83.7201 99.0363 83.8424 98.5672 83.8336C97.4066 83.8123 96.3603 82.9924 95.2006 83.0341C94.9414 83.0438 94.6841 83.097 94.425 83.1147C93.9086 83.1502 93.3921 83.0456 92.89 82.9171C91.4524 82.5483 90.0683 81.974 88.7942 81.2153C88.5816 81.0894 88.3653 80.9502 88.2242 80.7473C88.1965 80.7065 88.1723 80.6657 88.1455 80.6249C88.1357 80.6427 88.0687 80.8191 88.0562 80.8581C87.9624 81.1523 87.9963 81.233 88.1009 81.389L88.0991 81.3899Z" fill="#FFFFFF" fill-opacity="0.87"></path><path d="M134.212 50.7006C134.712 50.6191 135.182 50.6279 135.67 50.8034C136.744 51.1908 137.57 52.1906 137.739 53.3118C137.767 53.4953 137.779 53.6805 137.795 53.8658C137.942 53.8144 138.088 53.7577 138.232 53.6956C138.367 53.6371 138.512 53.5618 138.558 53.4235C138.582 53.3499 138.573 53.2693 138.562 53.1913C138.42 52.195 138.058 50.448 137.222 49.8772C136.385 49.3064 135.293 49.6122 134.491 50.2291C134.479 50.2583 134.227 50.6722 134.212 50.7006Z" fill="#FFFFFF" fill-opacity="0.87"></path><path d="M96.0664 81.046C95.9189 81.1772 96.0753 81.412 96.237 81.5255C97.3423 82.3064 98.9649 82.2692 100.033 81.4395C100.183 81.3243 100.324 81.1922 100.414 81.0256C100.522 80.8262 100.549 80.5948 100.571 80.3688C100.572 80.3599 100.572 80.3493 100.574 80.3396C100.167 80.4291 99.7601 80.5204 99.3544 80.6108C99.1266 80.6613 98.8952 80.7109 98.6629 80.6888C98.3314 80.6586 98.0329 80.4796 97.7703 80.2766C97.3986 79.9877 97.0778 79.6358 96.8249 79.2405C96.7213 79.0791 96.5962 78.8921 96.4282 78.8283C96.3719 78.9382 95.8734 79.4514 95.8135 79.5578C95.65 79.8485 95.063 79.9886 95.004 80.3174C94.9468 80.6462 95.7715 80.882 96.0655 81.0451L96.0664 81.046Z" fill="#FFFFFF" fill-opacity="0.87"></path><path d="M99.4241 52.7499C99.4974 52.6754 107.078 53.4377 110.342 55.3947C110.567 54.6688 110.793 53.9438 111.018 53.2178C111.138 52.8332 111.259 52.437 111.233 52.0354C111.195 51.4504 110.855 50.9355 110.568 50.4232C110.167 49.707 109.857 48.9438 109.466 48.2214C108.689 46.7811 107.604 45.5092 106.947 44.0112C106.535 43.0708 106.258 41.9966 105.443 41.3664C105.366 41.307 105.268 41.2494 105.176 41.2777C105.084 41.3061 105.038 41.4027 105.001 41.4904C104.714 42.1845 99.7136 51.789 99.4232 52.7499H99.4241Z" fill="#DDDDDD" fill-opacity="0.87"></path><path d="M118.466 42.6534C118.555 44.2018 118.319 45.7769 118.641 47.2934C119.026 49.1069 120.18 50.6926 120.54 52.5114C120.226 52.7897 113.962 54.41 111.786 55.806C109.781 53.3278 106.505 46.8609 106.461 46.3831C106.309 44.7372 104.569 43.1107 104.694 41.463C104.703 41.3504 104.714 41.2316 104.78 41.1386C104.842 41.0508 104.944 41.0012 105.044 40.9595C105.881 40.613 106.819 40.6413 107.718 40.5252C108.863 40.3772 109.959 39.9907 111.074 39.6938C112.567 39.2949 114.097 39.0538 115.627 38.842C116.317 38.7463 116.653 38.6373 117.167 39.1602C117.584 39.5857 117.878 40.1157 118.081 40.6715C118.313 41.3061 118.429 41.9806 118.467 42.6534H118.466Z" fill="#FFFFFF" fill-opacity="0.87"></path><path d="M88.1439 80.6259C88.1707 80.6666 88.1948 80.7074 88.2225 80.7491C88.3637 80.9529 88.579 81.0912 88.7926 81.2171C90.0658 81.9758 91.4498 82.5501 92.8875 82.9189C93.3896 83.0474 93.906 83.1529 94.4216 83.1174C94.6816 83.1006 94.938 83.0465 95.198 83.0368C96.3569 82.9942 97.4032 83.815 98.5647 83.8362C99.0338 83.8451 99.4957 83.7228 99.9603 83.6616C100.186 83.6324 100.473 83.6297 100.766 83.6643C100.77 83.6182 100.78 83.5721 100.796 83.5251C101.145 82.559 101.076 81.5264 100.781 80.5434C100.513 80.5142 100.274 80.7109 100.108 80.9228C99.9416 81.1329 99.8013 81.3775 99.5699 81.5149C99.2277 81.7196 98.7854 81.631 98.4182 81.4768C97.9705 81.2853 97.5434 80.9786 97.3558 80.5319C97.2066 80.1791 97.1601 79.7023 96.7938 79.5835C96.5284 79.4966 96.213 79.6615 95.9709 79.5277C95.9539 79.1607 96.3203 78.9054 96.641 78.7246C96.5409 78.5447 96.3837 78.3967 96.1987 78.3071C96.1612 78.2885 96.1219 78.2726 96.0799 78.2779C95.9852 78.2868 95.9378 78.394 95.9012 78.4826C95.6894 78.9888 95.2222 79.3087 94.7129 79.5551C94.6235 79.5986 94.5315 79.6393 94.4412 79.6792C94.343 79.7218 94.2429 79.7608 94.1455 79.8007C94.0535 79.8379 93.9614 79.8742 93.8685 79.9106C93.814 79.9327 93.7577 79.954 93.7023 79.977C93.227 80.1623 92.7445 80.3307 92.2441 80.4273C91.5865 80.5558 90.8887 80.5532 90.2677 80.3041C89.9943 80.196 89.7361 80.0382 89.4457 79.9841C88.9355 79.8902 88.3807 80.172 88.1448 80.6259H88.1439Z" fill="black" fill-opacity="0.87"></path><path d="M115.696 28.7738C115.785 29.0468 115.869 29.3562 115.735 29.6106C115.647 29.7763 115.481 29.8853 115.32 29.9819C114.613 30.4039 113.843 30.7212 113.044 30.9224C112.761 29.8995 113.23 28.8368 113.329 27.7802C113.382 27.2041 113.325 26.6226 113.379 26.0474C113.423 25.5759 113.577 24.7861 114.037 24.5362C114.438 25.1336 114.666 25.9464 114.926 26.6164C115.202 27.3282 115.46 28.047 115.697 28.773L115.696 28.7738Z" fill="#D3976E" fill-opacity="0.87"></path><path d="M101.245 12.612C101.275 13.2156 101.534 13.7811 101.789 14.3289C102.107 15.0131 102.425 15.6974 102.744 16.3817C102.795 16.4916 102.847 16.6015 102.898 16.7114C104.758 15.6256 106.559 14.4379 108.289 13.1562C107.802 12.6873 107.373 12.16 107.011 11.59C106.409 10.6443 105.986 9.58951 105.809 8.48422C105.638 7.40996 104.748 7.15557 103.771 7.57127C103.298 7.77336 102.832 8.02509 102.506 8.42041C102.19 8.8042 102.034 9.28904 101.891 9.76413C101.825 9.98306 101.76 10.2029 101.695 10.4227C101.625 10.6664 101.555 10.9102 101.487 11.1557C101.353 11.6317 101.222 12.1183 101.247 12.6111L101.245 12.612Z" fill="#EBB28A" fill-opacity="0.87"></path><path d="M101.245 12.612C101.275 13.2156 101.534 13.7811 101.789 14.3289C102.107 15.0132 102.425 15.6974 102.744 16.3817L103.862 15.8029C103.862 15.8029 102.809 15.0894 102.731 14.2084C102.653 13.3273 102.844 11.8285 103.559 10.9474C104.273 10.0664 104.765 8.44083 104.765 8.44083L101.695 10.4236C101.624 10.6674 101.554 10.9111 101.486 11.1566C101.352 11.6326 101.221 12.1192 101.246 12.612H101.245Z" fill="#D3976E" fill-opacity="0.87"></path><path d="M104.551 42.095C105.311 41.1687 106.501 40.6812 107.686 40.4729C108.872 40.2646 110.085 40.2992 111.287 40.2185C113.528 40.0687 115.771 39.5192 117.995 39.8312C117.364 38.9519 116.733 38.0718 116.102 37.1925C115.762 36.7183 115.409 36.2078 115.386 35.6263C115.374 35.3249 115.453 35.0254 115.437 34.724C115.408 34.1434 115.04 33.6444 114.783 33.1223C114.036 31.6014 114.219 29.818 114.308 28.1277C114.508 24.2871 114.072 20.2657 112.03 16.9968C111.008 15.3606 109.614 13.9699 108.055 12.8239C106.668 13.6677 105.053 13.9806 103.794 15.0034C103.484 15.2551 103.202 15.5405 102.884 15.7825C102.718 15.9093 102.541 16.0245 102.401 16.1796C102.178 16.4278 102.07 16.7549 101.967 17.0722C101.235 19.3324 100.496 21.6476 100.573 24.0194C100.622 25.5271 101.001 27.0047 101.427 28.4539C101.886 30.0121 102.177 31.6661 102.447 33.2677C102.567 33.9857 102.677 34.7063 102.831 35.418C102.97 36.0606 103.146 36.6944 103.32 37.329C103.755 38.9262 104.157 40.4889 104.553 42.0958L104.551 42.095Z" fill="url(&quot;#paint0_linear_783_569&quot;)" fill-opacity="0.87"></path><path d="M89.148 27.0197C89.2874 27.1199 89.4687 27.2573 89.4687 27.2573C89.4687 27.2573 89.2856 27.4292 89.2641 27.4691C89.2409 27.5143 89.2257 27.5613 89.2186 27.6083C89.2007 27.7191 89.2257 27.8316 89.2909 27.9212C89.383 28.0479 89.7216 28.2881 89.8655 28.3537C90.3301 28.5673 91.2361 28.8917 91.7391 29.0149C92.3583 29.1656 93.4618 29.1461 94.1435 29.2737C95.4819 29.5255 95.6088 29.8738 96.8392 30.4535C98.3661 31.1732 100.017 31.9319 101.664 32.3078C102.91 32.5923 104.159 32.8777 105.405 33.1622C105.863 33.2668 106.329 33.3714 106.798 33.3492C107.267 33.3279 107.75 33.1613 108.054 32.805C108.302 32.5152 108.406 32.134 108.504 31.7671C109.144 29.3509 109.789 26.9116 109.9 24.4165C109.934 23.648 109.911 22.8547 109.74 22.1075C109.621 21.5757 109.426 21.0678 109.126 20.6087C107.846 20.0911 106.301 20.2834 105.045 20.8569C104.679 21.0253 104.323 21.2274 104.034 21.5075C103.452 22.0747 103.204 22.9132 103.193 23.7234C103.18 24.5335 103.381 25.3303 103.581 26.1148C103.705 26.6049 103.894 27.5693 104.037 27.7395C102.945 27.5196 101.645 27.8582 100.183 27.7909C99.7144 27.7705 99.2516 27.6854 98.7932 27.5852C97.7067 27.3468 96.6417 27.0109 95.616 26.5863C95.6553 26.643 95.4757 26.5526 95.4319 26.4994C95.0254 26.0137 94.8458 25.3729 94.4509 24.8765C94.2007 24.561 93.8665 24.3119 93.4912 24.1612C93.2366 24.0584 92.8837 24.0318 92.747 24.2676C92.7228 24.3093 92.7059 24.358 92.6666 24.3855C92.6246 24.4138 92.5692 24.4112 92.5191 24.4041C92.1975 24.3589 91.9089 24.1923 91.614 24.0584C91.3183 23.9246 90.985 23.8209 90.6732 23.9095C90.3613 23.9981 90.1103 24.3509 90.2398 24.6461C89.7547 24.5973 89.4232 25.013 89.3874 25.4952C89.3803 25.5954 89.4348 25.8444 89.4348 25.8444C89.4348 25.8444 89.207 25.9304 89.1426 25.9924C88.8773 26.2486 88.8496 26.8026 89.148 27.0188V27.0197Z" fill="#EBB28A" fill-opacity="0.87"></path><path d="M89.2919 27.9212C89.3839 28.048 89.7226 28.2882 89.8664 28.3538C90.331 28.5674 91.2371 28.8918 91.7401 29.015C92.3593 29.1657 93.4627 29.1462 94.1445 29.2738C95.4829 29.5255 95.6098 29.8739 96.8401 30.4535C98.3671 31.1733 100.018 31.932 101.665 32.3078C102.911 32.5923 104.16 32.8777 105.406 33.1622C105.864 33.2668 106.33 33.3714 106.799 33.3493C107.268 33.328 107.751 33.1614 108.055 32.805C108.303 32.5152 108.407 32.1341 108.505 31.7671C109.145 29.3509 109.79 26.9116 109.901 24.4165C109.935 23.6481 109.912 22.8548 109.741 22.1076L108.538 21.9799V23.7225C108.538 23.7225 108.313 27.9841 107.79 29.966C107.267 31.9488 106.026 32.5232 105.111 32.4656C104.196 32.4088 100.486 31.058 98.6057 30.3968C96.7249 29.7365 94.987 28.3573 93.7129 28.3857C92.4379 28.414 90.2077 28.3928 89.5126 27.8432C89.4099 27.7626 89.3125 27.6828 89.2195 27.6074C89.2017 27.7182 89.2267 27.8308 89.2919 27.9203V27.9212Z" fill="#D3976E" fill-opacity="0.87"></path><path d="M102.934 23.4575C102.947 23.6799 102.96 23.9015 102.973 24.124C104.183 23.5505 105.571 23.5231 106.912 23.5062C107.443 23.4991 107.861 23.5754 108.38 23.687C108.9 23.7996 109.641 23.9911 109.972 24.4032C110.005 24.1772 110.031 23.9503 110.05 23.7225C109.667 23.3679 108.969 23.1942 108.469 23.0879C107.92 22.9717 107.479 22.8929 106.919 22.8999C105.567 22.9159 104.167 22.9407 102.933 23.4575H102.934Z" fill="#DDDDDD" fill-opacity="0.87"></path><path d="M102.83 21.6555C102.865 22.2565 102.9 22.8574 102.935 23.4575C104.17 22.9408 105.569 22.9151 106.921 22.9C107.481 22.8929 107.922 22.9718 108.471 23.0879C108.971 23.1943 109.669 23.368 110.052 23.7225C110.149 22.6421 110.108 21.5385 110.064 20.4581C110.029 19.624 109.931 18.7527 109.462 18.0596C109.305 17.8274 109.112 17.6235 108.91 17.4294C108.476 17.0119 107.994 16.6343 107.443 16.3861C106.678 16.0405 105.468 15.8463 104.673 16.2186C103.818 16.6192 103.248 17.5526 103.003 18.4248C102.709 19.468 102.769 20.5724 102.831 21.6546L102.83 21.6555Z" fill="#FFFFFF" fill-opacity="0.87"></path><path d="M97.463 9.61169C97.6908 9.71539 97.8195 9.78808 97.8677 9.94142C97.9035 10.0531 97.8749 10.3013 97.8749 10.3013C97.8597 10.3846 97.907 10.4768 97.9696 10.5379C97.9857 10.5539 99.2786 10.592 98.7782 10.6638C98.7773 10.6682 98.1197 10.8118 98.0491 10.8996C98.0178 10.9386 98.0009 10.99 97.9919 11.0325C97.9875 11.0556 97.9857 11.0768 97.9857 11.0892C97.9857 11.1203 98.0009 11.1672 98.0196 11.2204C98.0643 11.3454 98.1742 11.5218 98.1644 11.6078C98.1519 11.7159 98.1385 11.8037 98.1251 11.8746C98.0857 12.082 98.0482 12.1626 98.0482 12.2327C98.0482 12.628 98.3824 12.9302 98.6433 12.9302C100.218 12.9302 101.974 12.3177 102.524 11.9189C102.909 11.6397 103.171 11.2842 103.286 11.0325C103.44 10.6904 103.454 9.73578 103.46 9.69412C103.849 9.44594 104.321 9.18092 104.572 8.79624C104.667 8.65176 104.746 8.49399 104.808 8.33445C105.003 7.83365 105.026 7.19814 104.636 6.82675C104.423 6.62378 104.104 6.53691 103.816 6.60073C103.705 6.62555 103.543 6.69646 103.378 6.78952C103.369 6.79484 103.362 6.79927 103.353 6.80459C103.152 5.73033 102.911 4.64986 102.756 4.42117C102.45 3.96913 101.318 2.77343 100.99 2.72025C100.907 2.70696 100.799 2.71671 100.684 2.73887C100.55 2.76546 100.407 2.808 100.282 2.84966C100.084 2.91702 100.219 2.59528 100.219 2.59528C100.219 2.59528 99.2723 2.69543 98.8336 3.28752C98.4396 3.82111 98.0491 4.77838 98.0393 5.89962C98.0393 5.91912 98.0518 6.16021 98.0545 6.1806C98.0571 6.20098 98.0598 6.22314 98.0634 6.24441C98.0956 6.4598 98.1411 6.72925 98.1349 6.86486C98.1188 7.24954 97.0931 8.63049 97.0118 8.87867C97.0082 8.88931 97.0055 8.89817 97.0046 8.90615C96.9724 9.14724 97.0725 9.43176 97.463 9.60992V9.61169Z" fill="#EBB28A" fill-opacity="0.87"></path><path d="M98.175 6.31357C98.477 6.08312 98.8469 5.9413 99.2266 5.91028C99.0926 5.99005 99.0864 6.11503 99.1855 6.23469C99.2856 6.35434 99.3884 6.38537 99.5733 6.49705C99.7073 6.57771 99.9066 6.66191 99.9924 6.79132C99.7467 6.64241 99.484 6.52098 99.2106 6.42968C99.1257 6.40132 99.0202 6.38005 98.9559 6.44298C98.905 6.4935 98.913 6.57505 98.9345 6.6433C98.9657 6.74434 98.9934 6.87286 99.0274 6.93579C99.1194 7.10598 99.2508 7.2735 99.2695 7.26552C99.433 7.19638 99.61 7.09445 99.7538 6.99075C99.6225 7.10243 99.475 7.2735 99.3437 7.38518C99.3142 7.41 99.2293 7.46672 99.2177 7.46584C99.2079 7.46495 98.9693 7.30452 98.8657 7.22032C98.8255 7.18752 98.7862 7.15384 98.7495 7.11661C98.7111 7.07673 98.6754 7.03418 98.6414 6.99075C98.553 6.87995 98.4681 6.76561 98.3868 6.6495C98.385 6.64684 98.3832 6.64418 98.3814 6.64241C98.3019 6.53959 98.2322 6.4288 98.175 6.31357Z" fill="#D3976E" fill-opacity="0.87"></path><path d="M97.9768 10.6168C97.8794 10.5778 97.8151 10.5069 97.816 10.4351C97.816 10.4023 97.8383 10.3633 97.8892 10.3553C97.9133 10.3509 97.9393 10.3553 97.9643 10.3598C98.2922 10.4174 98.5781 10.5521 98.9114 10.5973C98.747 10.6434 98.5629 10.6088 98.3923 10.631C98.2457 10.6496 98.1162 10.6726 97.9777 10.6168H97.9768Z" fill="#D3976E" fill-opacity="0.87"></path><path d="M97.6585 9.16051C97.6094 9.14456 97.5602 9.1286 97.5093 9.12683C97.4745 9.12683 97.4369 9.13304 97.4101 9.15608C97.3833 9.17913 97.3708 9.2199 97.3878 9.25003C97.4039 9.2784 97.4378 9.28903 97.47 9.2979C97.6326 9.34044 97.6701 9.34488 97.8372 9.36703C97.8881 9.37412 98.0499 9.39451 98.0499 9.36172C98.0481 9.27485 97.7488 9.18976 97.6594 9.16051H97.6585Z" fill="#D3976E" fill-opacity="0.87"></path><path d="M99.3401 5.75424C99.0202 5.66561 98.6789 5.76931 98.3689 5.87213C98.2322 5.91733 98.0865 5.96874 98.0079 6.07422C97.9945 6.09195 97.9838 6.11233 97.9847 6.13272C97.9865 6.15576 98.0025 6.17615 98.0186 6.19476C98.0624 6.24706 98.1071 6.30024 98.1509 6.35254C98.1669 6.37204 98.1848 6.39242 98.2098 6.40394C98.2277 6.41192 98.2474 6.41458 98.267 6.41547C98.4332 6.42256 98.5726 6.3224 98.7021 6.23554C98.8335 6.14779 98.9782 6.06624 99.1444 6.04408C99.3517 6.01661 99.5599 6.08486 99.7556 6.15222C99.8735 6.19299 100.179 6.20806 100.065 6.13892C100.024 6.11411 99.4786 5.79147 99.3401 5.75247V5.75424Z" fill="#2D2220" fill-opacity="0.87"></path><path d="M103.723 7.12189C103.958 7.05984 104.228 7.12189 104.39 7.30093C104.594 7.52518 104.59 7.87264 104.491 8.15804C104.45 8.27681 104.392 8.39381 104.298 8.4789C104.098 8.65972 103.782 8.65618 103.57 8.82104C103.474 8.89461 103.398 9.00186 103.282 9.03199C103.157 9.06479 103.019 8.98945 102.957 8.87777C102.894 8.7652 102.899 8.62604 102.941 8.5055C102.998 8.34152 103.125 8.20236 103.284 8.12791C103.443 8.05345 103.632 8.04547 103.798 8.10575C103.89 8.13943 103.985 8.1935 104.078 8.16513C104.114 8.1545 104.145 8.13145 104.172 8.10575C104.354 7.93645 104.369 7.62357 104.209 7.433C104.049 7.24243 103.742 7.19723 103.528 7.32487C103.421 7.38868 103.361 7.48352 103.279 7.57305C103.198 7.66257 103.184 7.59077 103.222 7.5048C103.305 7.32221 103.536 7.1733 103.724 7.12278L103.723 7.12189Z" fill="#D3976E" fill-opacity="0.87"></path><path d="M99.0247 6.64149C98.8916 6.88436 98.9595 7.21763 99.1775 7.38958C99.1909 7.40022 99.2061 7.41085 99.2231 7.41174C99.2383 7.41263 99.2526 7.40731 99.266 7.4011C99.3839 7.35147 99.4956 7.28853 99.6001 7.21497C99.6564 7.17508 99.8387 7.09176 99.8235 7.01022C99.8083 6.93222 99.5278 6.85333 99.4607 6.82497C99.3249 6.76736 99.0328 6.62731 99.0256 6.63972L99.0247 6.64149Z" fill="#EFDED3" fill-opacity="0.87"></path><path d="M98.9622 7.01641C98.9962 7.19989 99.0846 7.33816 99.1588 7.32486C99.2338 7.31157 99.2669 7.15114 99.2329 6.96766C99.199 6.78419 99.1105 6.64591 99.0364 6.65921C98.9613 6.6725 98.9283 6.83294 98.9622 7.01641Z" fill="#353332" fill-opacity="0.87"></path><path d="M98.9738 7.02885C98.9944 7.13876 99.0417 7.22208 99.0802 7.21499C99.1186 7.20789 99.1329 7.11305 99.1132 7.00315C99.0927 6.89324 99.0453 6.80992 99.0069 6.81701C98.9685 6.8241 98.9542 6.91894 98.9738 7.02885Z" fill="#1E1E1E" fill-opacity="0.87"></path><path d="M99.0471 6.90475C99.0543 6.93577 99.0757 6.95793 99.0945 6.9535C99.1133 6.94906 99.1222 6.91981 99.115 6.88879C99.1079 6.85777 99.0864 6.83561 99.0677 6.84004C99.0489 6.84447 99.04 6.87372 99.0471 6.90475Z" fill="#FFFFFF" fill-opacity="0.87"></path><path d="M94.4402 79.6783C94.56 79.6641 94.6717 79.6676 94.7744 79.7111C94.9013 79.7642 95.0076 79.8777 95.0648 80.0239C95.1157 80.1525 95.1318 80.304 95.1113 80.4742L95.2435 80.4902C95.2658 80.2969 95.2489 80.1241 95.189 79.9752C95.1184 79.797 94.9862 79.6552 94.8271 79.5878C94.7896 79.5719 94.7512 79.5604 94.7128 79.5533C94.6234 79.5967 94.5314 79.6375 94.4411 79.6774L94.4402 79.6783Z" fill="#FFFFFF" fill-opacity="0.87"></path><path d="M93.7014 79.9753C93.7103 79.9761 93.7201 79.9806 93.7291 79.9841C93.8559 80.0373 93.9623 80.1508 94.0194 80.297C94.0704 80.4255 94.0864 80.5771 94.0659 80.7473L94.1981 80.7632C94.2205 80.57 94.2017 80.3972 94.1436 80.2483C94.0864 80.1047 93.9882 79.9841 93.8675 79.9088C93.813 79.9309 93.7567 79.9522 93.7014 79.9753Z" fill="#FFFFFF" fill-opacity="0.87"></path><path d="M95.0917 80.1419L95.0193 79.6571C95.2793 79.6376 95.5295 79.5799 95.6707 79.4594C95.7743 79.3708 95.8128 79.2546 95.7833 79.1226C95.7717 79.0703 95.7458 79.0198 95.7047 78.9675C95.559 78.7822 95.2499 78.6847 95.0399 78.8407C94.9371 78.9169 94.8701 79.0428 94.8505 79.1953C94.8469 79.2263 94.8451 79.2564 94.8442 79.2874C94.6789 79.1049 94.4359 79.0012 94.2009 79.0313C94.0642 79.049 93.9123 79.135 93.9007 79.2821C93.8909 79.4089 93.9883 79.5241 94.1625 79.5897C94.2795 79.634 94.5887 79.6748 94.9059 79.6633L95.0908 80.1428L95.0917 80.1419ZM94.8531 79.533C94.5771 79.5383 94.3144 79.5055 94.2107 79.4656C94.125 79.4328 94.0276 79.3681 94.0338 79.2919C94.0392 79.221 94.1312 79.1731 94.2188 79.1616C94.4663 79.1306 94.7343 79.2901 94.8531 79.533ZM95.6537 79.1509C95.6725 79.236 95.6501 79.3025 95.584 79.3592C95.4652 79.4612 95.2382 79.5099 95.0006 79.5268C94.9854 79.4222 94.9711 79.314 94.9836 79.2112C94.9979 79.0969 95.0479 79.0003 95.1203 78.9462C95.265 78.8389 95.4938 78.9116 95.601 79.0481C95.6296 79.0845 95.6475 79.1181 95.6546 79.1501L95.6537 79.1509Z" fill="#FFFFFF" fill-opacity="0.87"></path><path d="M146.979 54.0732C146.932 53.8835 146.812 53.7204 146.697 53.5627C145.285 51.6525 143.634 50.1794 141.584 48.9678C140.514 48.334 139.514 47.7357 138.19 47.1108C137.469 46.7705 136.753 46.5117 136.008 46.2307C135.73 46.1261 135.477 46.4549 135.434 46.7466C135.399 46.9868 135.418 47.2544 135.32 47.468C135.596 47.6037 135.88 47.6994 136.112 47.749C136.591 47.8501 137.088 47.8891 137.546 48.0593C138.68 48.4812 139.421 49.6476 140.577 50.0066C140.835 50.0864 141.106 50.1227 141.367 50.1945C141.887 50.3381 142.358 50.6191 142.807 50.9186C144.092 51.7766 145.25 52.8199 146.238 54.0049C146.402 54.2026 146.567 54.4136 146.634 54.6617C146.647 54.7114 146.656 54.7601 146.668 54.8089C146.685 54.7947 146.819 54.6954 146.855 54.6467C146.995 54.4508 147.029 54.2629 146.98 54.0723L146.979 54.0732Z" fill="#FFFFFF" fill-opacity="0.87"></path><path d="M134.212 50.5322C134.465 50.6536 134.77 50.5419 135.008 50.393C135.245 50.2423 135.47 50.0509 135.745 49.9942C136.152 49.9117 136.557 50.1511 136.864 50.4303C137.237 50.7733 137.55 51.2218 137.577 51.727C137.6 52.1241 137.48 52.6098 137.798 52.8536C138.028 53.0299 138.395 52.9759 138.588 53.1913C138.477 53.5582 138.026 53.6823 137.647 53.7497C137.683 53.9606 137.785 54.1592 137.936 54.3125C137.966 54.3426 138.001 54.3728 138.042 54.3825C138.139 54.4047 138.222 54.3161 138.291 54.2416C138.661 53.833 139.203 53.6743 139.766 53.6061C139.881 53.591 139.997 53.5795 140.111 53.5733H140.116C140.238 53.5635 140.359 53.5564 140.478 53.5511C140.577 53.5467 140.678 53.5432 140.776 53.5387C140.855 53.5343 140.933 53.5316 141.013 53.529C141.533 53.5139 142.054 53.5148 142.568 53.591C143.259 53.6921 143.944 53.9358 144.469 54.3941C144.699 54.5953 144.899 54.8381 145.164 54.9915C145.634 55.26 146.277 55.1767 146.669 54.8098C146.657 54.7619 146.649 54.7123 146.635 54.6626C146.567 54.4144 146.402 54.2035 146.239 54.0058C145.251 52.8208 144.093 51.7784 142.808 50.9204C142.36 50.6199 141.888 50.3398 141.369 50.1963C141.107 50.1236 140.837 50.0872 140.578 50.0075C139.423 49.6485 138.683 48.482 137.548 48.0601C137.09 47.8891 136.594 47.8501 136.115 47.7499C135.884 47.7003 135.599 47.6054 135.324 47.4689C135.303 47.5141 135.278 47.5576 135.246 47.5957C134.565 48.4262 134.269 49.4641 134.216 50.5331L134.212 50.5322Z" fill="black" fill-opacity="0.87"></path><path d="M139.428 53.0622C139.449 53.2625 139.541 53.4397 139.683 53.5514C139.71 53.5718 139.736 53.5904 139.765 53.6064C139.88 53.5913 139.996 53.5798 140.11 53.5736C139.98 53.5558 139.865 53.5186 139.77 53.4442C139.659 53.3555 139.585 53.2111 139.568 53.048C139.553 52.9044 139.58 52.7475 139.65 52.5817L139.522 52.5294C139.445 52.7156 139.412 52.8946 139.429 53.0622H139.428Z" fill="#FFFFFF" fill-opacity="0.87"></path><path d="M140.558 53.0813C140.576 53.2622 140.654 53.4261 140.775 53.5396C140.855 53.5352 140.932 53.5325 141.012 53.5298C140.972 53.513 140.934 53.4908 140.899 53.4634C140.787 53.3747 140.713 53.2303 140.697 53.0672C140.682 52.9236 140.71 52.7667 140.78 52.6009L140.652 52.5486C140.572 52.7348 140.542 52.9138 140.559 53.0813H140.558Z" fill="#FFFFFF" fill-opacity="0.87"></path><path d="M140.132 54.324C140.158 54.324 140.182 54.3223 140.2 54.3196C140.326 54.2983 140.424 54.1725 140.424 54.0342C140.424 53.9278 140.372 53.8179 140.278 53.7249C140.121 53.5671 139.95 53.4758 139.725 53.4279C139.515 53.3827 139.291 53.3552 139.064 53.544C138.997 53.6008 138.957 53.6708 138.952 53.7417C138.948 53.8108 138.975 53.8826 139.032 53.9491C139.155 54.0945 139.4 54.1654 139.568 54.0386C139.603 54.0129 139.627 53.9801 139.648 53.9518C139.655 53.9429 139.662 53.9332 139.67 53.9243C139.672 53.9527 139.674 53.9784 139.678 53.9987C139.706 54.137 139.804 54.2416 139.96 54.301C140.003 54.3169 140.072 54.3249 140.131 54.3249L140.132 54.324ZM139.816 53.5937C139.957 53.6398 140.072 53.7125 140.18 53.8206C140.219 53.8596 140.284 53.9394 140.284 54.0333C140.284 54.0971 140.241 54.1725 140.176 54.1831C140.135 54.1902 140.044 54.1831 140.011 54.1707C139.898 54.1273 139.834 54.0617 139.814 53.9695C139.806 53.9243 139.806 53.802 139.81 53.7355L139.816 53.5937ZM139.766 53.5786L139.684 53.6921C139.684 53.6921 139.64 53.7523 139.582 53.8135C139.566 53.8303 139.552 53.8498 139.537 53.8684C139.52 53.8915 139.504 53.9137 139.485 53.9278C139.381 54.0049 139.219 53.9535 139.139 53.8587C139.12 53.8365 139.089 53.7922 139.092 53.7488C139.093 53.716 139.117 53.6797 139.154 53.6477C139.317 53.5121 139.47 53.5121 139.697 53.5609C139.721 53.5662 139.744 53.5715 139.767 53.5777L139.766 53.5786Z" fill="#FFFFFF" fill-opacity="0.87"></path><path d="M94.5055 29.3792C94.6485 28.5212 94.9165 27.7395 95.315 26.9657C95.3999 26.8008 95.4982 26.6306 95.6617 26.5402C95.8118 26.604 95.9959 26.6687 96.146 26.7334C95.8681 26.9417 95.6126 27.5507 95.4803 27.8706C95.2168 28.5097 95.1471 28.851 94.9755 29.5202C94.8451 29.4776 94.4725 29.4032 94.5046 29.3801L94.5055 29.3792Z" fill="black" fill-opacity="0.87"></path><path d="M95.3101 27.3529L95.4436 27.3986C95.6186 27.4584 95.7115 27.6476 95.6512 27.8211L95.4872 28.2929C95.4269 28.4665 95.2362 28.5587 95.0613 28.4988L94.9278 28.4532C94.7529 28.3934 94.6599 28.2042 94.7202 28.0306L94.8842 27.5588C94.9445 27.3853 95.1352 27.2931 95.3101 27.3529Z" fill="#EFEFEF" fill-opacity="0.87"></path><path d="M95.1721 28.5647C95.2284 28.5647 95.2847 28.5523 95.3374 28.5266C95.4285 28.4822 95.4964 28.406 95.5295 28.3112L95.693 27.8396C95.7609 27.6437 95.6555 27.4301 95.4589 27.3628L95.3258 27.3176C95.1292 27.2502 94.913 27.3548 94.8451 27.5498L94.6816 28.0213C94.6137 28.2172 94.7191 28.4308 94.9157 28.4982L95.0488 28.5434C95.089 28.5576 95.131 28.5638 95.1721 28.5638V28.5647ZM95.2025 27.3823C95.2338 27.3823 95.2659 27.3876 95.2972 27.3982L95.4303 27.4434C95.5822 27.4957 95.6635 27.6606 95.6108 27.8113L95.4473 28.2828C95.4223 28.3555 95.3696 28.4149 95.299 28.4486C95.2293 28.4822 95.1498 28.4876 95.0765 28.4619L94.9434 28.4167C94.7915 28.3644 94.7102 28.1995 94.7629 28.0488L94.9264 27.5773C94.9684 27.4576 95.081 27.3823 95.2025 27.3823Z" fill="black" fill-opacity="0.87"></path><path d="M103.746 8.46027C103.77 8.55777 103.741 8.61184 103.719 8.66502C103.678 8.76341 103.604 8.82191 103.5 8.85116C103.463 8.86179 103.423 8.86268 103.386 8.87066C103.269 8.89548 103.178 8.98677 103.102 9.07807C103.034 9.15872 102.971 9.24381 102.913 9.33156C102.902 9.3484 102.889 9.36702 102.869 9.37145C102.854 9.375 102.655 9.27572 102.652 9.25977C102.651 9.24736 103.063 8.71732 103.09 8.63045C103.102 8.59411 103.122 8.517 103.131 8.47977C103.195 8.21475 103.659 8.10662 103.745 8.45939L103.746 8.46027Z" fill="#FFFFFF" fill-opacity="0.87"></path><path d="M102.508 16.3764C102.544 16.0006 102.352 15.6044 101.936 15.1984C101.864 15.1275 101.789 15.0592 101.714 14.9901C101.468 14.7641 101.215 14.531 101.065 14.2358C100.944 13.9956 100.885 13.7022 100.885 13.3397C100.885 12.7804 101.021 12.2211 101.276 11.723C101.47 11.3445 101.726 10.9935 101.972 10.6549C102.282 10.2286 102.602 9.78807 102.806 9.28816C102.834 9.21991 102.918 9.08519 102.918 9.08341L102.844 9.03821C102.841 9.04441 102.756 9.18091 102.725 9.25537C102.526 9.74552 102.209 10.1816 101.902 10.6035C101.653 10.9457 101.396 11.2993 101.199 11.6831C100.938 12.1936 100.799 12.7662 100.798 13.3388C100.798 13.7146 100.86 14.0204 100.988 14.273C101.144 14.5824 101.404 14.8208 101.655 15.0513C101.729 15.1195 101.803 15.1878 101.876 15.2578C102.272 15.6442 102.456 16.0174 102.423 16.3657L102.509 16.3737L102.508 16.3764Z" fill="#FFFFFF" fill-opacity="0.87"></path><path d="M98.0462 2.17958C97.9283 2.30633 97.8827 2.51994 97.9363 2.69189C97.99 2.86296 98.141 2.97996 98.2955 2.97198C98.1937 2.70341 98.3259 2.37014 98.5153 2.16451C98.7039 1.95887 98.9433 1.83567 99.1488 1.65308C99.3829 1.44744 99.567 1.1709 99.7841 0.941334C100.057 0.650608 100.382 0.431678 100.728 0.305815C100.641 0.335951 100.566 0.417496 100.534 0.519427C101.584 -0.0460694 102.786 -0.154205 103.864 0.218952C103.901 0.232247 103.944 0.251747 103.955 0.296951C103.961 0.321769 103.946 0.351019 103.927 0.363428C104.506 0.455609 105.083 0.547791 105.662 0.639972C105.764 0.655926 105.924 0.567291 105.86 0.473337C106.145 0.733926 106.345 1.11506 106.431 1.53519C106.475 1.74349 106.489 1.96065 106.472 2.1778C106.564 2.05283 106.639 1.9119 106.695 1.75944C106.76 1.5804 106.799 1.38806 106.805 1.19483C106.948 1.42617 107 1.7364 106.949 2.02446C106.936 2.09449 106.92 2.16362 106.895 2.22921C106.962 2.21326 107.031 2.20174 107.099 2.1973C107.534 2.1583 107.975 2.33558 108.289 2.68214C108.022 2.61566 107.739 2.63251 107.473 2.72823C107.363 2.76723 107.256 2.81864 107.155 2.88334C107.567 3.08366 107.88 3.5357 107.968 4.06043C107.917 4.07816 107.858 4.06486 107.817 4.02409C107.861 4.60731 107.901 5.22333 107.697 5.76844C107.616 5.98383 107.499 6.17971 107.423 6.39776C107.19 7.05632 107.064 8.62429 107.064 8.62429C107.066 8.80865 106.95 10.101 106.89 10.4759C106.882 10.717 106.88 10.9581 106.885 11.1983C106.802 11.0866 106.733 10.9652 106.678 10.8393C106.621 10.7072 106.579 10.5698 106.554 10.428C106.546 10.5548 106.539 10.6815 106.532 10.8083C106.532 10.8145 106.532 10.8216 106.532 10.8269C106.527 10.8189 106.523 10.8118 106.519 10.8038C106.464 10.7019 106.408 10.6009 106.354 10.4989C106.337 10.5769 106.319 10.654 106.303 10.732C106.299 10.748 106.295 10.7657 106.291 10.7817C106.267 10.7542 106.244 10.7258 106.22 10.6966C105.99 10.4068 105.836 10.0584 105.779 9.69412C105.722 9.8971 105.685 10.1063 105.671 10.3163C105.67 10.3279 105.67 10.3385 105.669 10.35C105.649 10.319 105.629 10.2871 105.611 10.2552C105.359 9.81467 105.223 9.30767 105.226 8.80244C105.16 8.91147 105.121 9.03556 105.113 9.16142C105.113 9.16585 105.113 9.1694 105.113 9.17383C105.112 9.16053 105.11 9.14901 105.109 9.13572C105.018 8.59947 105.036 8.02688 104.916 7.49241C104.885 7.35148 104.842 7.20966 104.753 7.09621C104.51 6.78421 104.112 6.6353 103.732 6.7523C103.361 6.86575 103.086 7.15736 102.781 7.39668C102.616 7.52786 102.416 7.68475 102.217 7.61295C102.117 7.5775 101.962 7.48975 101.898 7.39934C101.895 7.39491 101.891 7.38959 101.887 7.38427C101.885 7.38073 101.882 7.37452 101.878 7.36743C101.827 7.26195 101.662 6.80105 101.486 6.30291C101.256 5.64967 101.005 4.92995 100.967 4.85904C100.714 4.39459 100.31 4.09943 99.8913 3.88138C99.7117 3.78832 99.4732 3.62434 99.273 3.61548C99.0756 3.60484 98.8763 3.79984 98.6717 3.82732C98.4349 3.85923 98.1901 3.79541 98.0096 3.61459C97.6612 3.26802 97.6611 2.5031 98.0471 2.18046L98.0462 2.17958Z" fill="#3F312C" fill-opacity="0.87"></path><path d="M103.462 4.74911C103.706 4.71897 103.955 4.83686 104.11 5.05668C104.102 4.88915 104.072 4.72341 104.018 4.57007C104.228 4.56829 104.433 4.6525 104.593 4.80406C104.62 4.53284 104.51 4.27668 104.38 4.05952C104.251 3.84236 104.097 3.64116 104.018 3.39121C104.268 3.41071 104.505 3.5605 104.655 3.7945C104.685 3.60837 104.75 3.38412 104.906 3.35044C105.116 3.30435 105.301 3.65978 105.489 3.5348C105.621 3.44794 105.775 3.56671 105.872 3.69612C105.97 3.82552 106.069 3.98418 106.216 3.99393C106.325 4.00102 106.431 3.92036 106.541 3.92391C106.743 3.93011 106.891 4.21729 107.09 4.16854C107.259 4.12777 107.433 4.21907 107.545 4.36798C107.658 4.516 107.718 4.71365 107.751 4.9122C107.871 5.62838 107.684 6.37735 107.482 7.082C107.279 7.78666 107.055 8.5117 107.1 9.24383C107.038 8.97704 106.997 8.70227 106.98 8.42395C106.929 8.5764 106.902 8.73861 106.901 8.90081C106.791 8.74393 106.711 8.55513 106.672 8.35393C106.643 8.42306 106.635 8.50461 106.65 8.57818C106.656 8.60743 106.603 8.57818 106.627 8.56577C106.728 8.99033 106.635 9.48315 106.387 9.82972C106.439 9.55051 106.454 9.26333 106.432 8.98236C106.394 9.16495 106.302 9.33247 106.177 9.44769C106.199 9.22256 106.173 8.99299 106.103 8.78647C106.105 8.98058 105.998 9.17558 105.847 9.2527C105.958 8.79356 105.963 8.30252 105.86 7.85048C105.858 8.13588 105.749 8.42218 105.569 8.61718C105.61 8.42218 105.624 8.22097 105.612 8.02332L105.524 8.24491C105.631 7.30448 105.136 6.34367 104.396 6.05737C104.276 6.01128 104.15 5.98026 104.039 5.90935C103.809 5.7631 103.85 5.54772 103.788 5.28802C103.758 5.16481 103.597 4.73316 103.462 4.74911Z" fill="#2D2220" fill-opacity="0.87"></path><path d="M102.476 4.76154C102.088 4.74913 101.726 4.44866 101.585 4.02143C101.905 4.30418 102.287 4.48943 102.686 4.55679C102.629 4.46816 102.612 4.34318 102.642 4.23327L102.937 4.40079C102.956 4.28202 102.992 4.16502 103.043 4.05955C103.177 4.08791 103.307 4.13843 103.429 4.20845C103.447 4.06486 103.465 3.92127 103.483 3.77768C103.489 3.73603 103.495 3.69082 103.519 3.65891C103.552 3.61548 103.606 3.60928 103.654 3.61105C104.118 3.62346 104.515 3.99662 104.783 4.43891C104.858 4.13932 104.857 3.8158 104.779 3.52419C105.36 3.65094 105.879 4.09234 106.164 4.70482C106.246 4.57452 106.296 4.41675 106.305 4.25632C106.472 4.35293 106.604 4.52932 106.666 4.73938C106.682 4.63391 106.794 4.57895 106.878 4.6082C106.962 4.63745 107.021 4.72343 107.07 4.80941C107.174 4.99643 107.25 5.20649 107.294 5.4272C107.33 5.28627 107.365 5.14534 107.402 5.00529C107.588 5.1604 107.709 5.42188 107.721 5.69754C108.012 5.08329 107.868 4.29177 107.509 3.76439C107.151 3.23612 106.619 2.92412 106.086 2.67683C106.296 2.87892 106.523 3.11823 106.536 3.44707C106.148 3.00212 105.62 2.73355 105.073 2.7043C105.21 2.80358 105.369 2.95958 105.321 3.15014C104.65 2.53767 103.786 2.22922 102.926 2.29481C103.115 2.31785 103.285 2.47562 103.35 2.68835C103.061 2.56781 102.746 2.52526 102.435 2.56515C102.53 2.6263 102.625 2.69012 102.696 2.78674C102.767 2.88335 102.807 3.02162 102.772 3.14748C102.369 2.94008 101.929 2.83194 101.484 2.83194C101.796 2.84346 102.057 3.15635 102.123 3.52153C101.837 3.44264 101.55 3.36464 101.263 3.28576C101.3 3.46569 101.362 3.63587 101.446 3.78921C101.427 3.75464 100.993 3.72982 100.934 3.71121C100.754 3.65448 100.598 3.55166 100.431 3.46746C100.255 3.92925 100.794 4.26607 101.045 4.44068C101.469 4.73495 101.981 4.85816 102.478 4.76509L102.476 4.76154Z" fill="#2D2220" fill-opacity="0.87"></path><path d="M98.3993 3.26271C98.5843 3.22548 98.7648 3.14305 98.9256 3.02073C98.7389 2.93919 98.6513 2.63871 98.7523 2.4251C98.8479 2.64935 99.0659 2.76812 99.2785 2.77255C99.4921 2.7761 99.7012 2.68126 99.8941 2.56248C99.7512 2.48448 99.7128 2.26289 99.7235 2.07144C99.7494 1.58572 99.9915 1.11329 100.344 0.85713C100.186 1.12747 100.035 1.4829 100.168 1.75944C100.216 1.8596 100.294 1.93228 100.378 1.9899C100.52 2.08917 100.68 2.15387 100.845 2.18046C100.721 2.02535 100.705 1.77628 100.759 1.56356C100.814 1.35083 100.926 1.16558 101.037 0.985652C100.969 1.21256 101.063 1.4829 101.242 1.57863C101.308 1.21433 101.507 0.882835 101.775 0.688722C102.181 0.395337 102.683 0.433451 103.143 0.502587C102.844 0.531837 102.547 0.659472 102.296 0.86688C102.173 0.967925 102.049 1.14697 102.114 1.30031C102.518 0.875744 103.075 0.717086 103.601 0.736585C104.128 0.756085 104.633 0.936902 105.133 1.11506C104.908 1.0477 104.681 0.979448 104.447 0.980334C104.214 0.98122 103.969 1.05833 103.791 1.24713C104.375 1.07074 104.97 1.2941 105.552 1.42706C105.601 1.43858 105.654 1.44833 105.701 1.42617C105.736 1.40933 105.764 1.37742 105.79 1.34463C105.87 1.24536 105.941 1.13722 106.003 1.02199C106.122 1.15761 106.082 1.41997 105.956 1.55913C105.83 1.69828 105.65 1.73817 105.483 1.73817C104.922 1.73817 104.351 1.37654 103.826 1.64333C104.059 1.62206 104.293 1.74172 104.435 1.95533C103.753 1.58926 102.937 1.57154 102.221 1.90746C102.408 1.91899 102.584 2.03599 102.69 2.2168C102.474 2.1521 102.321 2.12728 102.026 2.12817C101.865 2.12817 101.584 2.1521 101.357 2.24783C100.763 2.49955 100.417 3.00123 99.8209 3.24232C99.3473 3.43466 98.8854 3.57382 98.402 3.26359L98.3993 3.26271Z" fill="#2D2220" fill-opacity="0.87"></path><path d="M98.0197 11.2205C98.0644 11.3454 98.1743 11.5218 98.1645 11.6078C98.1519 11.7159 98.1385 11.8037 98.1251 11.8746C98.1662 11.832 98.1877 11.7682 98.2073 11.7106C98.3387 11.3419 98.6255 11.0485 98.9329 10.8039C98.7765 10.8836 98.6201 10.9634 98.4629 11.0432C98.3887 11.0813 98.3137 11.1194 98.2306 11.13C98.1421 11.1425 98.0304 11.1088 97.9911 11.0317C97.9866 11.0547 97.9849 11.076 97.9849 11.0884C97.9849 11.1194 98.0001 11.1664 98.0188 11.2196L98.0197 11.2205Z" fill="#D3976E" fill-opacity="0.87"></path><path d="M99.8441 7.00931C99.8441 7.00931 99.4251 7.21583 99.2705 7.24862C99.1159 7.28142 99.0006 7.22469 99.0006 7.22469C99.0006 7.22469 99.1945 7.44096 99.2178 7.46844C99.241 7.49592 99.7351 7.16442 99.7994 7.09528C99.8646 7.02615 99.8441 7.00931 99.8441 7.00931Z" fill="#EBB28A" fill-opacity="0.87"></path><path d="M98.9285 6.73636C98.9222 6.75941 98.9311 6.78511 98.9517 6.80461C98.8802 6.75941 98.8257 6.70002 98.7962 6.63532C98.7864 6.61316 98.781 6.58745 98.8016 6.57238C98.823 6.55732 98.8597 6.56263 98.8891 6.57061C98.9347 6.58302 98.9767 6.60075 99.0187 6.61847C99.2644 6.72306 99.4556 6.79309 99.6897 6.91275C99.7666 6.95263 99.9578 7.04127 99.9578 7.0847C99.9372 7.04481 99.5477 6.92781 99.4574 6.8959C99.2778 6.83209 99.1116 6.7922 98.9285 6.73547V6.73636Z" fill="#2D2220" fill-opacity="0.87"></path><path d="M98.6209 8.72534C98.6486 9.03734 98.7648 9.33782 98.9283 9.60638C98.8541 9.49913 98.8184 9.37061 98.7925 9.24298C98.7013 8.79271 98.7549 8.37878 98.8354 7.93383C98.6263 7.89926 98.6111 8.59859 98.6218 8.72623L98.6209 8.72534Z" fill="#FCC7A2" fill-opacity="0.87"></path></g><defs><linearGradient id="paint0_linear_783_569" x1="117.995" y1="27.4594" x2="100.566" y2="27.4594" gradientUnits="userSpaceOnUse"><stop stop-color="#5A4683"></stop><stop offset="1" stop-color="#1A122B"></stop></linearGradient><clipPath id="clip0_783_569"><rect width="96" height="80" fill="white" transform="matrix(-1 0 0 1 96 8)"></rect></clipPath><clipPath id="clip1_783_569"><rect width="59" height="85" fill="white" transform="matrix(-1 0 0 1 147 0)"></rect></clipPath><linearGradient id="paint0_linear_783_569" x1="117.995" y1="27.4594" x2="100.566" y2="27.4594" gradientUnits="userSpaceOnUse"><stop stop-color="#5A4683"></stop><stop offset="1" stop-color="#1A122B"></stop></linearGradient></defs></svg>